<svg width="25" height="20" viewBox="0 0 25 20" fill="none" xmlns="http://www.w3.org/2000/svg">
<path d="M24.4453 9.99985C24.4453 9.43937 24.0273 8.97617 23.485 8.90287L23.3342 8.89276L3.80235 8.89365L10.8586 1.89161C11.2935 1.46019 11.295 0.759224 10.862 0.325947C10.4684 -0.0679398 9.85119 -0.104996 9.41552 0.215649L9.29066 0.322577L0.327702 9.21475C0.270382 9.27161 0.220596 9.33316 0.178341 9.39815C0.166407 9.41772 0.154257 9.43773 0.14274 9.45814C0.132147 9.47565 0.122574 9.49382 0.113543 9.51219C0.100998 9.53892 0.0887432 9.56654 0.0776157 9.59472C0.0685749 9.61645 0.0610256 9.63758 0.0541401 9.65888C0.0459538 9.68529 0.0380001 9.71344 0.0311584 9.74202C0.0260715 9.76197 0.0220432 9.78117 0.0185299 9.80045C0.0135899 9.82913 0.00938416 9.85881 0.00638199 9.88885C0.00379181 9.91175 0.0022316 9.93445 0.00136948 9.95717C0.00114632 9.97094 0.000865936 9.98537 0.000865936 9.99985L0.00142288 10.0427C0.00227547 10.0645 0.00376511 10.0862 0.00589371 10.1078L0.000865936 9.99985C0.000865936 10.0697 0.00736237 10.1381 0.019783 10.2043C0.0226631 10.2202 0.0260944 10.2364 0.0298958 10.2526C0.0377884 10.2859 0.0469093 10.318 0.0574112 10.3495C0.0625668 10.3651 0.068573 10.3818 0.0749912 10.3984C0.0879745 10.4317 0.102087 10.4635 0.117613 10.4944C0.124826 10.5089 0.132904 10.5242 0.141363 10.5392C0.155249 10.5638 0.169554 10.5872 0.184679 10.61C0.195351 10.6261 0.207169 10.6429 0.219509 10.6594L0.229124 10.6721C0.25906 10.7111 0.291534 10.748 0.326303 10.7827L0.327637 10.7837L9.2906 19.6774C9.72541 20.1088 10.4289 20.1074 10.8619 19.6741C11.2556 19.2803 11.2902 18.6651 10.9665 18.2324L10.8587 18.1085L3.80531 11.1078L23.3342 11.1069C23.9479 11.1069 24.4453 10.6113 24.4453 9.99985Z" fill="#F23849"/>
</svg>
