<svg width="66" height="70" viewBox="0 0 66 70" fill="none" xmlns="http://www.w3.org/2000/svg">
<path d="M58.3406 25.6507L25.6752 58.2854C24.1987 59.76 21.8055 59.76 20.3295 58.2854L1.10696 39.0812C-0.368986 37.6062 -0.368986 35.2152 1.10696 33.7406L33.7723 1.1059C35.2488 -0.368634 37.6421 -0.368634 39.118 1.1059L58.3406 20.3101C59.817 21.7847 59.817 24.1762 58.3406 25.6507Z" fill="#8CBAFA"/>
<path d="M58.3399 20.3109L55.9413 17.9141C57.2558 19.2273 57.1243 21.4874 55.6483 22.962L22.9824 55.5967C21.5065 57.0718 19.2442 57.2026 17.9297 55.8894L20.3288 58.2862C21.8048 59.7608 24.198 59.7608 25.6745 58.2862L58.3399 25.6515C59.8164 24.177 59.8164 21.7855 58.3399 20.3109Z" fill="#5692D8"/>
<path d="M7.38797 37.7381C7.12496 37.7381 6.86249 37.6377 6.66202 37.4374C6.2611 37.0369 6.2611 36.388 6.66202 35.9875L22.6622 20.0026C23.0631 19.602 23.7132 19.602 24.1136 20.0026C24.5145 20.4031 24.5145 21.0525 24.1136 21.4525L8.11338 37.438C7.91291 37.6377 7.65044 37.7381 7.38797 37.7381Z" fill="#252D4C"/>
<path d="M12.472 42.8182C12.2089 42.8182 11.9465 42.7178 11.746 42.5175C11.3451 42.117 11.3451 41.4681 11.746 41.0675L27.7462 25.0826C28.1471 24.6821 28.7971 24.6821 29.1975 25.0826C29.5985 25.4832 29.5985 26.1326 29.1975 26.5326L13.1974 42.5175C12.9969 42.7178 12.7344 42.8182 12.472 42.8182Z" fill="#252D4C"/>
<path d="M33.2385 8.54444L30.0375 11.7419C28.7792 12.999 28.7792 15.037 30.0375 16.2942C31.2959 17.5513 33.3364 17.5513 34.5947 16.2942L37.7952 13.0968C39.0536 11.8396 39.0536 9.80162 37.7952 8.54444C36.5368 7.28727 34.4964 7.28727 33.2385 8.54444Z" fill="#FFCD34"/>
<path d="M61.4236 35.2881H15.2272C13.1397 35.2881 11.4473 36.9789 11.4473 39.0644V66.2234C11.4473 68.3089 13.1397 69.9998 15.2272 69.9998H61.4236C63.5116 69.9998 65.2035 68.3089 65.2035 66.2234V39.0644C65.204 36.9789 63.5116 35.2881 61.4236 35.2881Z" fill="#F23849"/>
<path d="M61.4243 35.2881H58.041C60.1285 35.2881 61.821 36.9789 61.821 39.0644V66.2234C61.821 68.3089 60.1285 69.9998 58.041 69.9998H61.4243C63.5123 69.9998 65.2042 68.3089 65.2042 66.2234V39.0644C65.2048 36.9789 63.5123 35.2881 61.4243 35.2881Z" fill="#970412"/>
<path d="M11.4473 43.8203H65.204V50.3449H11.4473V43.8203Z" fill="#222224"/>
<path d="M61.8223 43.8203H65.2056V50.3449H61.8223V43.8203Z" fill="#252D4C"/>
<path d="M51.9941 60.7705V64.7946C51.9941 65.106 52.2465 65.358 52.5581 65.358H58.9649C59.2766 65.358 59.5289 65.106 59.5289 64.7946V60.7705C59.5289 60.4591 59.2766 60.207 58.9649 60.207H52.5581C52.2465 60.207 51.9941 60.4591 51.9941 60.7705Z" fill="#E9E9EA"/>
<path d="M32.6758 60.7705V64.7946C32.6758 65.106 32.9286 65.358 33.2398 65.358H46.7911C47.1027 65.358 47.355 65.106 47.355 64.7946V60.7705C47.355 60.4591 47.1027 60.207 46.7911 60.207H33.2398C32.9286 60.207 32.6758 60.4591 32.6758 60.7705Z" fill="#E9E9EA"/>
<path d="M27.1524 66.3838H20.4014C19.8342 66.3838 19.375 65.9245 19.375 65.3584C19.375 64.7918 19.8342 64.333 20.4014 64.333H27.1524C27.7196 64.333 28.1788 64.7918 28.1788 65.3584C28.1788 65.9245 27.7196 66.3838 27.1524 66.3838Z" fill="#252D4C"/>
</svg>
