<svg width="60" height="60" viewBox="0 0 60 60" fill="none" xmlns="http://www.w3.org/2000/svg">
<path d="M0 12.8C0 8.31958 0 6.07937 0.871948 4.36808C1.63893 2.86278 2.86278 1.63893 4.36808 0.871948C6.07937 0 8.31958 0 12.8 0H28C39.201 0 44.8016 0 49.0798 2.17987C52.8431 4.09734 55.9027 7.15695 57.8201 10.9202C60 15.1984 60 20.799 60 32V47.2C60 51.6804 60 53.9206 59.1281 55.6319C58.3611 57.1372 57.1372 58.3611 55.6319 59.1281C53.9206 60 51.6804 60 47.2 60H12.8C8.31958 60 6.07937 60 4.36808 59.1281C2.86278 58.3611 1.63893 57.1372 0.871948 55.6319C0 53.9206 0 51.6804 0 47.2V12.8Z" fill="white"/>
<path d="M31.6051 39.7991V35.0869C31.4157 35.1314 31.2178 35.1554 31.0141 35.1554H28.9855C28.7818 35.1554 28.584 35.1314 28.3945 35.0869V39.7991H31.6051Z" fill="#FFAF10"/>
<path d="M29.8164 39.7991V35.1554H28.9855C28.7818 35.1554 28.584 35.1314 28.3945 35.0869V39.7991H29.8164Z" fill="#EF9614"/>
<path d="M30.0015 33.0493C28.772 33.0493 27.5945 32.8324 26.5078 32.4375V32.8708C26.5078 34.1827 27.6178 35.2463 28.9872 35.2463H31.0157C32.3851 35.2463 33.4951 34.1827 33.4951 32.8708V32.4375C32.4083 32.8324 31.2309 33.0493 30.0015 33.0493Z" fill="#FFD00D"/>
<path d="M29.3495 33.0282C28.3554 32.9658 27.4009 32.7621 26.5078 32.4375V32.8708C26.5078 34.1827 27.6178 35.2463 28.9872 35.2463H31.0157C31.1532 35.2463 31.288 35.2351 31.4193 35.2145C30.2948 35.038 29.4253 34.137 29.3495 33.0282Z" fill="#FFAF10"/>
<path d="M33.5788 41.5742V40.0801C33.5788 39.8384 33.3724 39.6406 33.1201 39.6406H26.8825C26.6302 39.6406 26.4238 39.8384 26.4238 40.0801V41.5742H33.5788Z" fill="#EF8318"/>
<path d="M29.1757 41.5742V40.0801C29.1757 39.8384 29.3821 39.6406 29.6344 39.6406H26.8825C26.6302 39.6406 26.4238 39.8384 26.4238 40.0801V41.5742H29.1757Z" fill="#DB722C"/>
<path d="M38.669 49.0449V41.8379C38.669 41.5962 38.4627 41.3984 38.2104 41.3984H21.7907C21.5384 41.3984 21.332 41.5962 21.332 41.8379V49.0449H38.669Z" fill="#A05F33"/>
<path d="M22.7538 49.0449V41.8379C22.7538 41.5962 22.9602 41.3984 23.2125 41.3984H21.7907C21.5384 41.3984 21.332 41.5962 21.332 41.8379V49.0449H22.7538Z" fill="#87502A"/>
<path d="M36.1494 47.1113C36.1494 47.353 35.943 47.5508 35.6908 47.5508H24.3122C24.0599 47.5508 23.8535 47.353 23.8535 47.1113V43.4199C23.8535 43.1782 24.0599 42.9805 24.3122 42.9805H35.6908C35.943 42.9805 36.1494 43.1782 36.1494 43.4199V47.1113Z" fill="#293D7C"/>
<path d="M25.686 47.1113V43.4199C25.686 43.1782 25.8924 42.9805 26.1447 42.9805H24.3122C24.0599 42.9805 23.8535 43.1782 23.8535 43.4199V47.1113C23.8535 47.353 24.0599 47.5508 24.3122 47.5508H26.1447C25.8924 47.5508 25.686 47.353 25.686 47.1113Z" fill="#1A2B63"/>
<path d="M40.5976 48.957H19.4079C19.1556 48.957 18.9492 49.1548 18.9492 49.3965V50.2184C22.2132 51.9885 25.9845 53 30.0027 53C34.021 53 37.7923 51.9885 41.0562 50.2183V49.3965C41.0562 49.1548 40.8498 48.957 40.5976 48.957Z" fill="#BF7E52"/>
<path d="M21.747 49.3965C21.747 49.1548 21.9534 48.957 22.2056 48.957H19.4079C19.1556 48.957 18.9492 49.1548 18.9492 49.3965V50.2184C19.8453 50.7044 20.7798 51.1328 21.747 51.4991V49.3965Z" fill="#AA6B3F"/>
<path d="M45.4334 10.25H41.8784V10.9891C41.8784 11.183 41.7138 11.3406 41.5115 11.3406H39.9722C39.9214 11.3406 39.8804 11.38 39.8804 11.4285V12.4473H44.6889C44.4925 16.2971 42.676 19.7457 39.8804 22.1795V23.5824C39.8804 24.0929 39.8374 24.5939 39.7559 25.0826C44.1335 22.1328 46.9999 17.2568 46.9999 11.7509C46.9999 10.9232 46.2971 10.25 45.4334 10.25Z" fill="#FFAF10"/>
<path d="M20.1196 23.5824V22.1795C17.3241 19.7457 15.5074 16.2971 15.3111 12.4473H20.1196V11.4285C20.1196 11.38 20.0785 11.3406 20.0278 11.3406H18.4884C18.286 11.3406 18.1215 11.183 18.1215 10.9891V10.25H14.5665C13.7027 10.25 13 10.9233 13 11.7509C13 17.2569 15.8665 22.1328 20.244 25.0827C20.1625 24.5939 20.1196 24.0929 20.1196 23.5824Z" fill="#FFD00D"/>
<path d="M20.0293 11.3398V23.5816C20.0293 28.8588 24.4943 33.1369 30.002 33.1369C35.5098 33.1369 39.9748 28.8588 39.9748 23.5816V11.3398H20.0293Z" fill="#EF8318"/>
<path d="M22.0195 23.5823V11.2529H20.0273V23.5823C20.0273 28.8595 24.4923 33.1376 30.0001 33.1376C30.3341 33.1376 30.6637 33.1206 30.9891 33.0897C25.9524 32.6076 22.0195 28.535 22.0195 23.5823Z" fill="#DB722C"/>
<path d="M30.0009 28.1718C33.7499 28.1718 36.789 25.2599 36.789 21.6679C36.789 18.0759 33.7499 15.1641 30.0009 15.1641C26.252 15.1641 23.2129 18.0759 23.2129 21.6679C23.2129 25.2599 26.252 28.1718 30.0009 28.1718Z" fill="#DB722C"/>
<path d="M24.9577 21.666C24.9577 18.3571 27.5373 15.6274 30.8743 15.2173C30.5889 15.1822 30.2984 15.1621 30.0029 15.1621C26.254 15.1621 23.2148 18.074 23.2148 21.666C23.2148 25.258 26.254 28.1699 30.0029 28.1699C30.2984 28.1699 30.5889 28.1497 30.8743 28.1147C27.5373 27.7047 24.9577 24.9749 24.9577 21.666Z" fill="#C95E23"/>
<path d="M32.3637 25.7271C32.2515 25.7272 32.1367 25.698 32.0227 25.6405L30.1746 24.7097C30.1467 24.6956 30.0845 24.6792 30.0011 24.6792C29.9177 24.6792 29.8555 24.6956 29.8274 24.7097L27.9795 25.6405C27.8654 25.698 27.7506 25.7271 27.6385 25.7271C27.4683 25.7271 27.3159 25.6605 27.2097 25.5398C27.0918 25.4059 27.0471 25.2201 27.0835 25.0167L27.4365 23.0451C27.452 22.9585 27.3948 22.7901 27.3292 22.7287L25.8342 21.3324C25.6396 21.1506 25.569 20.9252 25.6407 20.7141C25.7123 20.503 25.9076 20.3605 26.1765 20.3231L28.2425 20.0355C28.3331 20.0228 28.4828 19.9187 28.5234 19.8399L29.4473 18.0461C29.5676 17.8126 29.7694 17.6787 30.0011 17.6787C30.2329 17.6787 30.4347 17.8126 30.5549 18.0461L31.4789 19.8399C31.5195 19.9187 31.6691 20.0229 31.7597 20.0355L33.8257 20.3231C34.0946 20.3605 34.29 20.503 34.3615 20.7141C34.4332 20.9252 34.3627 21.1506 34.1682 21.3323L32.6731 22.7287C32.6074 22.79 32.5502 22.9585 32.5657 23.0451L32.9186 25.0167C32.955 25.2201 32.9103 25.4059 32.7925 25.5398C32.6862 25.6605 32.5338 25.7271 32.3637 25.7271Z" fill="#FFD00D"/>
<path d="M28.5978 24.8291L28.9802 22.6927C28.997 22.599 28.9351 22.4162 28.864 22.3499L27.2439 20.8368C27.0449 20.651 26.9674 20.4233 27.0242 20.2061L26.1765 20.3241C25.9076 20.3615 25.7123 20.504 25.6407 20.7151C25.569 20.9262 25.6396 21.1516 25.8342 21.3334L27.3292 22.7297C27.3948 22.791 27.452 22.9596 27.4365 23.0461L27.0835 25.0177C27.0472 25.2212 27.0919 25.407 27.2097 25.5408C27.316 25.6616 27.4683 25.7281 27.6385 25.7281C27.7507 25.7281 27.8654 25.699 27.9795 25.6415L28.6648 25.2963C28.5911 25.1643 28.5667 25.0029 28.5978 24.8291Z" fill="#FFAF10"/>
<path d="M41.971 10.9883C41.971 11.23 41.7646 11.4277 41.5123 11.4277H18.488C18.2358 11.4277 18.0294 11.23 18.0294 10.9883V8.43945C18.0294 8.19775 18.2358 8 18.488 8H41.5123C41.7646 8 41.971 8.19775 41.971 8.43945V10.9883Z" fill="#FFD00D"/>
<path d="M20.8272 10.9883V8.43945C20.8272 8.19775 21.0336 8 21.2858 8H18.488C18.2358 8 18.0294 8.19775 18.0294 8.43945V10.9883C18.0294 11.23 18.2358 11.4277 18.488 11.4277H21.2858C21.0336 11.4277 20.8272 11.23 20.8272 10.9883Z" fill="#FFAF10"/>
<path d="M18.1658 37.0907C18.0478 37.0907 17.9428 37.0185 17.9051 36.9114C17.3771 35.4125 16.982 35.0339 15.4177 34.5281C15.3058 34.4919 15.2305 34.3913 15.2305 34.2782C15.2305 34.1651 15.3058 34.0646 15.4176 34.0284C16.9819 33.5226 17.377 33.1439 17.905 31.6451C17.9428 31.538 18.0477 31.4658 18.1657 31.4658C18.2838 31.4658 18.3887 31.538 18.4264 31.6451C18.9544 33.1439 19.3496 33.5226 20.9139 34.0284C21.0257 34.0646 21.1011 34.1651 21.1011 34.2782C21.1011 34.3913 21.0258 34.4919 20.9139 34.5281C19.3496 35.0339 18.9544 35.4125 18.4264 36.9114C18.3888 37.0185 18.2839 37.0907 18.1658 37.0907Z" fill="#FFD00D"/>
<path d="M40.9602 34.1924C40.8662 34.1924 40.7824 34.1349 40.7524 34.0495C40.3317 32.8551 40.0167 32.5534 38.7702 32.1503C38.6812 32.1214 38.6211 32.0413 38.6211 31.9512C38.6211 31.8611 38.6812 31.7809 38.7702 31.7521C40.0168 31.349 40.3317 31.0472 40.7524 29.8529C40.7824 29.7674 40.8661 29.71 40.9602 29.71C41.0543 29.71 41.1378 29.7674 41.1681 29.8529C41.5888 31.0472 41.9038 31.3489 43.1503 31.7521C43.2393 31.7809 43.2993 31.8611 43.2993 31.9512C43.2993 32.0413 43.2393 32.1214 43.1503 32.1503C41.9037 32.5535 41.5888 32.8551 41.1681 34.0495C41.1378 34.1349 41.0542 34.1924 40.9602 34.1924Z" fill="#F23849"/>
<path d="M32.4726 44.8271H27.5192C27.2659 44.8271 27.0605 44.6304 27.0605 44.3877C27.0605 44.145 27.2659 43.9482 27.5192 43.9482H32.4726C32.726 43.9482 32.9313 44.145 32.9313 44.3877C32.9313 44.6304 32.726 44.8271 32.4726 44.8271Z" fill="white"/>
<path d="M31.3766 46.4092H28.6247C28.3714 46.4092 28.166 46.2124 28.166 45.9697C28.166 45.7271 28.3714 45.5303 28.6247 45.5303H31.3766C31.6299 45.5303 31.8352 45.7271 31.8352 45.9697C31.8352 46.2124 31.6299 46.4092 31.3766 46.4092Z" fill="white"/>
<path d="M24.4027 15.0322C24.3142 15.0322 24.2355 14.9781 24.2071 14.8977C23.8111 13.7736 23.5147 13.4896 22.3415 13.1102C22.2577 13.0831 22.2012 13.0077 22.2012 12.9228C22.2012 12.838 22.2577 12.7626 22.3415 12.7355C23.5147 12.3561 23.8111 12.0721 24.2071 10.9479C24.2355 10.8676 24.3142 10.8135 24.4027 10.8135C24.4912 10.8135 24.5699 10.8676 24.5983 10.9479C24.9943 12.0721 25.2906 12.356 26.4639 12.7355C26.5477 12.7626 26.6042 12.838 26.6042 12.9228C26.6042 13.0077 26.5477 13.0831 26.4639 13.1102C25.2906 13.4896 24.9943 13.7736 24.5983 14.8977C24.5699 14.9781 24.4912 15.0322 24.4027 15.0322Z" fill="white"/>
</svg>
