<svg width="89" height="63" viewBox="0 0 89 63" fill="none" xmlns="http://www.w3.org/2000/svg">
<path opacity="0.1" d="M88.1078 63C88.4052 60.9075 88.6282 58.7402 88.7769 56.4982C88.9256 54.2562 89 52.6121 89 51.5658C89 41.5516 87.2155 32.0605 83.6466 23.0925C80.0777 13.9751 75.6909 6.27758 70.4862 0L47.9574 5.15658C50.7828 11.5836 53.0877 18.9075 54.8722 27.1281C56.5079 35.1993 57.3258 42.8968 57.3258 50.2206C57.3258 50.5196 57.3258 51.1922 57.3258 52.2384C57.3258 53.1352 57.3258 54.2562 57.3258 55.6014C57.1771 56.7972 57.1028 58.0676 57.1028 59.4128C56.9541 60.758 56.8053 61.9537 56.6566 63H88.1078ZM40.1504 63C40.4478 60.9075 40.6708 58.7402 40.8195 56.4982C40.9683 54.2562 41.0426 52.6121 41.0426 51.5658C41.0426 41.5516 39.2581 32.0605 35.6892 23.0925C32.1203 13.9751 27.7335 6.27758 22.5288 0L0 5.15658C2.8254 11.5836 5.13033 18.9075 6.91479 27.1281C8.55054 35.1993 9.36842 42.8968 9.36842 50.2206C9.36842 50.5196 9.36842 51.1922 9.36842 52.2384C9.36842 53.1352 9.36842 54.2562 9.36842 55.6014C9.21971 56.7972 9.14536 58.0676 9.14536 59.4128C8.99666 60.758 8.84795 61.9537 8.69925 63H40.1504Z" fill="white"/>
</svg>
