<svg width="82" height="70" viewBox="0 0 82 70" fill="none" xmlns="http://www.w3.org/2000/svg">
<path d="M78.8864 17.6525C76.196 17.6525 74.0146 15.4756 74.0146 12.7892V2.81746C74.0146 1.9218 73.2875 1.19531 72.3897 1.19531H68.9871C68.0893 1.19531 67.3615 1.9218 67.3615 2.81746V8.65484C67.3615 12.9005 63.9907 16.4521 59.7389 16.523C55.3949 16.5958 51.8509 13.1021 51.8509 8.78235V2.81746C51.8509 1.9218 51.1232 1.19531 50.2253 1.19531H46.8227C45.9249 1.19531 45.1972 1.9218 45.1972 2.81746V12.7892C45.1972 15.4756 43.0164 17.6525 40.3254 17.6525C39.4512 17.6525 38.7422 18.3604 38.7422 19.2336V51.5921C38.7422 53.8325 40.5615 55.6493 42.8065 55.6493H76.406C78.6509 55.6493 80.4702 53.8325 80.4702 51.5921V19.2336C80.4702 18.3604 79.7612 17.6525 78.8864 17.6525Z" fill="#F23849"/>
<path d="M78.885 17.6525C76.1946 17.6525 74.0132 15.4756 74.0132 12.7892V2.81746C74.0132 1.9218 73.2861 1.19531 72.3883 1.19531H68.9857C68.9271 1.19531 68.8692 1.19842 68.8125 1.20464C69.6287 1.29048 70.2649 1.97964 70.2649 2.81746V12.7898C70.2649 15.4756 72.4462 17.6525 75.1366 17.6525C76.0114 17.6525 76.7205 18.3604 76.7205 19.2336V51.5921C76.7205 53.8325 74.9011 55.6493 72.6562 55.6493H76.4046C78.6495 55.6493 80.4688 53.8325 80.4688 51.5921V19.2336C80.4688 18.3604 79.7598 17.6525 78.885 17.6525Z" fill="#BA365F"/>
<path d="M78.8864 17.6525C76.196 17.6525 74.0146 15.4756 74.0146 12.7892V2.81746C74.0146 1.9218 73.2875 1.19531 72.3897 1.19531H68.9871C68.0893 1.19531 67.3615 1.9218 67.3615 2.81746V8.65484C67.3615 12.9005 63.9907 16.4521 59.7389 16.523C55.3949 16.5958 51.8509 13.1021 51.8509 8.78235V2.81746C51.8509 1.9218 51.1232 1.19531 50.2253 1.19531H46.8227C45.9249 1.19531 45.1972 1.9218 45.1972 2.81746V12.7892C45.1972 15.4756 43.0164 17.6525 40.3254 17.6525C39.4512 17.6525 38.7422 18.3604 38.7422 19.2336V24.9193L59.6062 34.9128L80.4702 24.9199V19.2336C80.4702 18.3604 79.7612 17.6525 78.8864 17.6525Z" fill="#E9E9EA"/>
<path d="M78.885 17.6525C76.1946 17.6525 74.0132 15.4756 74.0132 12.7892V2.81746C74.0132 1.9218 73.2861 1.19531 72.3883 1.19531H68.9857C68.9708 1.19531 68.9564 1.19531 68.9421 1.19593C68.9415 1.19593 68.9409 1.19593 68.9396 1.19593C68.8972 1.19718 68.8549 1.19967 68.8125 1.20402C69.6287 1.29048 70.2649 1.97964 70.2649 2.81746V12.7892C70.2649 15.4756 72.4462 17.6525 75.1366 17.6525C76.0114 17.6525 76.7205 18.3604 76.7205 19.2336V26.7149L80.4688 24.9193V19.2336C80.4688 18.3604 79.7598 17.6525 78.885 17.6525Z" fill="#C5C4CC"/>
<path d="M18.9184 68.8059H15.36C14.6553 68.8059 14.084 68.2355 14.084 67.532V7.27677C14.084 6.57329 14.6553 6.00293 15.36 6.00293H18.9184C19.6231 6.00293 20.1944 6.57329 20.1944 7.27677V67.532C20.1944 68.2355 19.6231 68.8059 18.9184 68.8059Z" fill="#E9E9EA"/>
<path d="M14.084 25.8945H20.1944V29.4772H14.084V25.8945Z" fill="#C5C4CC"/>
<path d="M28.528 25.895H5.74931C3.23399 25.895 1.19531 23.8598 1.19531 21.3489C1.19531 18.8379 3.23399 16.8027 5.74931 16.8027H28.528C31.0434 16.8027 33.082 18.8379 33.082 21.3489C33.082 23.8598 31.0434 25.895 28.528 25.895Z" fill="#F23849"/>
<path d="M22.5802 10.8105H11.6984C9.76623 10.8105 8.19922 12.3742 8.19922 14.303V16.8016H26.0788V14.303C26.0788 12.3742 24.5124 10.8105 22.5802 10.8105Z" fill="#F23849"/>
<path d="M28.528 48.9131H5.74931C3.23399 48.9131 1.19531 50.9482 1.19531 53.4592C1.19531 55.9696 3.23399 58.0047 5.74931 58.0047H28.528C31.0434 58.0047 33.082 55.9696 33.082 53.4592C33.082 50.9482 31.0434 48.9131 28.528 48.9131Z" fill="#F23849"/>
<path d="M28.5293 16.8027H24.7012C27.2165 16.8027 29.2552 18.8385 29.2552 21.3489C29.2552 23.8598 27.2165 25.895 24.7012 25.895H28.5293C31.0446 25.895 33.0833 23.8598 33.0833 21.3489C33.0833 18.8385 31.0446 16.8027 28.5293 16.8027Z" fill="#970412"/>
<path d="M28.5293 48.9131H24.7012C27.2165 48.9131 29.2552 50.9482 29.2552 53.4592C29.2552 55.9696 27.2165 58.0047 24.7012 58.0047H28.5293C31.0446 58.0047 33.0833 55.9696 33.0833 53.4592C33.0833 50.9482 31.0446 48.9131 28.5293 48.9131Z" fill="#252D4C"/>
<path d="M22.5802 63.9965H11.6984C9.76623 63.9965 8.19922 62.4328 8.19922 60.5034V58.0049H26.0788V60.5034C26.0788 62.4328 24.5124 63.9965 22.5802 63.9965Z" fill="#F23849"/>
<path d="M22.5781 10.8105H18.75C20.6821 10.8105 22.2485 12.3742 22.2485 14.303V16.8016H26.0766V14.303C26.0766 12.3742 24.5103 10.8105 22.5781 10.8105Z" fill="#970412"/>
<path d="M22.2485 58.0049V60.504C22.2485 62.4328 20.6821 63.9965 18.75 63.9965H22.5781C24.5103 63.9965 26.0766 62.4328 26.0766 60.504V58.0049H22.2485Z" fill="#575B7A"/>
<path d="M28.0724 67.2829H71.2017C73.0641 67.2829 74.5732 65.7758 74.5732 63.9167V44.1119C74.5732 42.3442 73.1376 40.9111 71.3669 40.9111H70.6235C69.6952 40.9111 68.8702 41.5008 68.5712 42.3784C67.3961 45.8261 64.1524 48.1449 60.5043 48.1449C56.9179 48.1449 53.7154 45.9032 52.4929 42.537C52.1384 41.5611 51.21 40.9111 50.1701 40.9111H47.2648C46.6847 40.9111 46.1146 41.0691 45.6167 41.3664L24.4063 54.0581C22.2567 55.3444 20.9414 57.6626 20.9414 60.1642C20.9414 64.0958 24.134 67.2829 28.0724 67.2829Z" fill="#8CBAFA"/>
<path d="M71.3657 40.9111H70.6224C70.0498 40.9111 69.5164 41.1357 69.122 41.5138C69.9295 42.0948 70.4554 43.0421 70.4554 44.1119V63.9173C70.4554 65.7758 68.9457 67.2829 67.084 67.2829H71.2006C73.0623 67.2829 74.572 65.7758 74.572 63.9173V44.1119C74.572 42.3442 73.1365 40.9111 71.3657 40.9111Z" fill="#5692D8"/>
<path d="M43.7145 42.5039L39.6328 44.9458L55.2456 67.2827H61.0345L43.7145 42.5039Z" fill="#F9AA4B"/>
<path d="M43.7513 67.2823H49.5396L35.6091 47.3525L31.5273 49.7951L43.7513 67.2823Z" fill="#F9AA4B"/>
<path d="M20.9434 60.3496C21.0431 64.1948 24.1945 67.2817 28.07 67.2817H71.1993C73.0617 67.2817 74.5708 65.7746 74.5708 63.9155V60.3496H20.9434Z" fill="#E9E9EA"/>
<path d="M70.4542 63.9161C70.4542 65.7734 68.9464 67.2798 67.0859 67.2817H71.1994C73.0618 67.2817 74.5708 65.7752 74.5708 63.9161V60.3496H70.4549V63.9161H70.4542Z" fill="#C5C4CC"/>
<path d="M33.3708 53.3335L46.0128 45.7689C46.9225 45.2253 47.4789 44.2444 47.4789 43.1858V40.9111H47.2627C46.682 40.9111 46.1119 41.0685 45.614 41.3664L29.9676 50.7292C29.3052 51.1255 29.137 52.0093 29.6074 52.6201C30.4984 53.777 32.1171 54.0843 33.3708 53.3335Z" fill="#E9E9EA"/>
<path d="M81.6667 24.897V19.2332C81.6667 17.7031 80.4193 16.4579 78.8865 16.4579C77.9046 16.4579 76.9818 16.0766 76.2877 15.3849C75.5936 14.6908 75.2111 13.769 75.2111 12.7894V2.81637C75.2111 1.26326 73.9456 0 72.3898 0H68.9872C67.4314 0 66.166 1.26388 66.166 2.81637V8.65375C66.166 12.275 63.2731 15.2692 59.7179 15.3289C57.9502 15.3563 56.2704 14.6914 55.0069 13.4505C53.7427 12.209 53.0467 10.5508 53.0467 8.78125V2.81637C53.0467 1.26326 51.7806 0 50.2248 0H46.8229C45.2671 0 44.001 1.26388 44.001 2.81637V6.41521C44.001 7.07514 44.5368 7.60943 45.1973 7.60943C45.8584 7.60943 46.3936 7.07514 46.3936 6.41521V2.81637C46.3936 2.58064 46.5861 2.38844 46.8229 2.38844H50.2248C50.4616 2.38844 50.6541 2.58064 50.6541 2.81637V8.78125C50.6541 11.1964 51.6043 13.4592 53.3289 15.1529C55.0536 16.8466 57.3365 17.7522 59.7578 17.7174C64.6108 17.6353 68.5586 13.5693 68.5586 8.65375V2.81637C68.5586 2.58064 68.7511 2.38844 68.9872 2.38844H72.3898C72.626 2.38844 72.8185 2.58064 72.8185 2.81637V12.7894C72.8185 14.4059 73.449 15.9273 74.5961 17.0736C75.7432 18.2168 77.2666 18.8463 78.8865 18.8463C79.1003 18.8463 79.2741 19.0198 79.2741 19.2332V24.1674L59.6057 33.5875L39.9386 24.168V19.2332C39.9386 19.1013 40.0003 19.0117 40.0545 18.9576C40.0962 18.916 40.1866 18.8463 40.3262 18.8463C43.672 18.8463 46.3936 16.1294 46.3936 12.7894V11.1921C46.3936 10.5328 45.8584 9.99787 45.1973 9.99787C44.5368 9.99787 44.001 10.5328 44.001 11.1921V12.7894C44.001 14.8121 42.3524 16.4579 40.3262 16.4579C39.581 16.4579 38.8819 16.7471 38.3604 17.2708C37.8351 17.7951 37.546 18.4924 37.546 19.2332V24.8784C37.5454 24.9051 37.5454 24.9318 37.546 24.9586V44.8019L31.3939 48.4829C30.5272 47.9865 29.5353 47.7191 28.529 47.7191H21.3911V27.0889H28.529C31.6998 27.0889 34.2793 24.5139 34.2793 21.3486C34.2793 18.1833 31.6998 15.6082 28.529 15.6082H27.276V14.3039C27.276 11.7195 25.1694 9.61721 22.5806 9.61721H21.3911V7.27666C21.3911 5.91575 20.2821 4.8086 18.9188 4.8086H15.3605C13.9972 4.8086 12.8881 5.91575 12.8881 7.27666V9.61721H11.6987C9.10987 9.61721 7.00328 11.7195 7.00328 14.3039V15.6082H5.75029C5.22504 15.6082 4.70478 15.6791 4.20321 15.8184C3.56706 15.9957 3.19447 16.6544 3.37204 17.2901C3.54961 17.9251 4.20882 18.2958 4.84622 18.1192C5.13844 18.0377 5.44249 17.9967 5.75029 17.9967H28.529C30.3808 17.9967 31.8867 19.5 31.8867 21.3486C31.8867 23.1965 30.3808 24.6998 28.529 24.6998H5.75029C3.89853 24.6998 2.39258 23.1965 2.39258 21.3486C2.39258 21.1589 2.40878 20.9679 2.43993 20.7826C2.55021 20.132 2.11157 19.5156 1.46047 19.4055C0.809364 19.2948 0.191282 19.7333 0.0809987 20.3839C0.027415 20.7011 0 21.0258 0 21.3486C0 24.5139 2.5795 27.0889 5.75029 27.0889H12.8881V47.7191H5.75029C2.5795 47.7191 0 50.2941 0 53.4594C0 54.9908 0.597522 56.4325 1.68477 57.5198C2.77203 58.6033 4.2163 59.1998 5.75029 59.1998H7.0039V60.5035C7.0039 63.0884 9.10987 65.1914 11.6981 65.1914H12.8881V67.5319C12.8881 68.8929 13.9972 70 15.3605 70H18.9188C20.2821 70 21.3911 68.8929 21.3911 67.5319V65.1914H21.4385C21.6859 65.5154 21.9581 65.8233 22.2553 66.1126C23.8622 67.6794 25.9464 68.4767 28.0704 68.4767H71.1998C73.7182 68.4767 75.7675 66.431 75.7675 63.9163V56.843H76.4061C79.3071 56.843 81.6667 54.4869 81.6667 51.5916V24.9381C81.6667 24.9244 81.6667 24.9107 81.6667 24.897ZM15.2807 7.27666C15.2807 7.23312 15.3162 7.19705 15.3605 7.19705H18.9188C18.9631 7.19705 18.9986 7.23312 18.9986 7.27666V9.61721H15.2807V7.27666ZM9.39585 15.6082V14.3039C9.39585 13.0363 10.4289 12.0057 11.6987 12.0057H14.0595H14.0844H14.1087H20.1699H20.1949H20.2198H22.5806C23.8504 12.0057 24.8834 13.0363 24.8834 14.3039V15.6082H9.39585ZM50.1681 42.105C50.7027 42.105 51.1837 42.4421 51.3663 42.9434C52.7551 46.7687 56.4268 49.3387 60.5017 49.3387C64.6638 49.3387 68.3611 46.6959 69.7013 42.7624C69.8352 42.3693 70.2053 42.105 70.6216 42.105H71.3649C72.4733 42.105 73.3749 43.005 73.3749 44.1115V59.1562H56.8125L52.8884 53.5434C52.5109 53.0029 51.7644 52.8704 51.223 53.2479C50.6815 53.6249 50.5488 54.3694 50.9264 54.9105L53.8947 59.1562H51.0242L43.6346 48.5843L45.659 47.3726L48.1893 50.9932C48.4223 51.326 48.7936 51.5045 49.1718 51.5045C49.408 51.5045 49.6466 51.4348 49.8547 51.2893C50.3968 50.9117 50.5295 50.1672 50.1519 49.6267L47.6054 45.9831C48.2821 45.2218 48.6753 44.2254 48.6753 43.1854V42.105H50.1681ZM45.3188 59.1562L39.6115 50.9914L41.5773 49.8152L48.1064 59.1562H45.3188ZM39.5299 59.1562L35.5298 53.4339L37.5541 52.2229L42.401 59.1568H39.5299V59.1562ZM28.4505 53.0284C28.5116 53.1391 28.5813 53.2461 28.6592 53.3475C29.4561 54.3825 30.6636 54.9366 31.8929 54.9366C32.4169 54.9366 32.9453 54.8359 33.4475 54.6281L36.6127 59.1562H22.2229C22.517 57.4775 23.5326 55.971 25.0193 55.0822L28.4505 53.0284ZM46.2827 42.36V43.186C46.2827 43.8136 45.9512 44.4039 45.4166 44.7329C45.3954 44.7453 45.3742 44.7578 45.3537 44.7715L41.3374 47.1742C41.3168 47.186 41.2963 47.1985 41.2757 47.2115L37.2949 49.5931C37.2875 49.5975 37.2794 49.6025 37.2719 49.6074L32.7559 52.3094C32.0225 52.7485 31.0773 52.5687 30.5558 51.892C30.5496 51.8839 30.5303 51.8584 30.5384 51.8167C30.5452 51.78 30.5671 51.7633 30.5783 51.7558L31.9484 50.936C31.964 50.9273 31.9802 50.9173 31.9957 50.9074L46.2291 42.3905C46.2472 42.3799 46.2646 42.37 46.2827 42.36ZM15.2807 27.0889H18.9986V47.7191H15.2807V27.0889ZM9.39648 60.5041V59.1998H16.1549C16.8153 59.1998 17.3512 58.6655 17.3512 58.0055C17.3512 57.3462 16.8153 56.8113 16.1549 56.8113H5.75029C4.85432 56.8113 4.01068 56.463 3.3764 55.8311C2.74212 55.196 2.39258 54.3538 2.39258 53.4594C2.39258 51.6115 3.89853 50.1075 5.75029 50.1075H28.529C28.5776 50.1075 28.6256 50.1088 28.6736 50.1106L23.7893 53.0334C21.2933 54.5268 19.7431 57.2585 19.7431 60.1638C19.7431 60.9575 19.8553 61.7257 20.064 62.4528C20.0665 62.4621 20.0696 62.4714 20.0721 62.4808C20.074 62.487 20.0758 62.4932 20.0777 62.4994C20.107 62.6014 20.1388 62.7022 20.1724 62.803H11.6981C10.4289 62.803 9.39648 61.7717 9.39648 60.5041ZM18.9986 67.5319C18.9986 67.5755 18.9624 67.6116 18.9188 67.6116H15.3605C15.3169 67.6116 15.2807 67.5755 15.2807 67.5319V65.1914H18.9986V67.5319ZM73.3749 63.9163C73.3749 65.1143 72.3992 66.0883 71.1991 66.0883C43.6047 66.0883 28.0393 66.0895 27.9122 66.0864C25.1856 66.0149 22.9114 64.0986 22.2983 61.5447H38.8763C38.8869 61.5453 38.8968 61.5453 38.9074 61.5453C38.918 61.5453 38.9286 61.5453 38.9392 61.5447H44.6646C44.6752 61.5453 44.6851 61.5453 44.6957 61.5453C44.7063 61.5453 44.7169 61.5453 44.7275 61.5447H50.37C50.3806 61.5453 50.3912 61.5453 50.4012 61.5453C50.4117 61.5453 50.4223 61.5453 50.4329 61.5447H56.1583C56.1689 61.5453 56.1789 61.5453 56.1894 61.5453C56.2 61.5453 56.2106 61.5453 56.2212 61.5447H73.3749V63.9163ZM76.4061 54.4546H75.7675V44.1115C75.7675 41.6883 73.7923 39.7165 71.3649 39.7165H70.6216C69.1804 39.7165 67.9006 40.6315 67.4358 41.993C66.4258 44.9581 63.6388 46.9497 60.5017 46.9497C57.4294 46.9497 54.6623 45.0128 53.6149 42.1299C53.0909 40.6862 51.7059 39.7165 50.1675 39.7165C47.5008 39.785 46.4846 39.4553 44.9992 40.3423L39.938 43.3701V26.8171L59.088 35.989C59.2518 36.0673 59.4288 36.1065 59.6057 36.1065C59.7827 36.1065 59.9596 36.0673 60.1229 35.989L79.2735 26.8165V51.5916C79.2741 53.1702 77.9874 54.4546 76.4061 54.4546Z" fill="black"/>
<path d="M58.3575 21.041H57.5537C56.8926 21.041 56.3574 21.5753 56.3574 22.2352C56.3574 22.8945 56.8926 23.4295 57.5537 23.4295H57.8067V27.5601H57.6609C56.9998 27.5601 56.4646 28.0944 56.4646 28.7543C56.4646 29.4142 56.9998 29.9485 57.6609 29.9485H60.3451C61.0061 29.9485 61.5413 29.4142 61.5413 28.7543C61.5413 28.0944 61.0061 27.5601 60.3451 27.5601H60.1993V22.8796C60.1993 21.8658 59.3731 21.041 58.3575 21.041Z" fill="black"/>
</svg>
