<svg width="90" height="90" viewBox="0 0 90 90" fill="none" xmlns="http://www.w3.org/2000/svg">
<path d="M0 8C0 3.58172 3.58172 0 8 0H70C81.0457 0 90 8.95431 90 20V82C90 86.4183 86.4183 90 82 90H8C3.58172 90 0 86.4183 0 82V8Z" fill="#161617"/>
<path d="M65.282 67.2221C64.6518 67.0731 64.0211 67.4644 63.873 68.0945L62.5881 73.5593C62.4398 74.1893 62.8305 74.8203 63.4605 74.9683C63.5507 74.9896 63.641 74.9997 63.7298 74.9997C64.2613 74.9997 64.7427 74.6357 64.8696 74.0958L66.1545 68.631C66.3027 68.001 65.912 67.3701 65.282 67.2221Z" fill="#DA48F2"/>
<path d="M60.5216 26.6321C60.5216 23.6138 61.372 20.6684 62.9809 18.1143L63.811 16.7967C64.1559 16.2491 63.9917 15.5256 63.4441 15.1806C62.8964 14.8354 62.173 14.9999 61.828 15.5475L60.9978 16.8651C59.153 19.7937 58.1779 23.1712 58.1779 26.6321C58.1779 30.3284 59.1531 33.9285 61.0058 37.1081H28.9923C30.8452 33.9285 31.8203 30.3283 31.8203 26.6321C31.8203 23.1712 30.8452 19.7938 29.0003 16.8651L28.1701 15.5475C27.8251 14.9999 27.1017 14.8354 26.554 15.1806C26.0064 15.5256 25.8421 16.2491 26.1871 16.7967L27.0173 18.1143C28.6261 20.6684 29.4765 23.6138 29.4765 26.6321C29.4765 30.2181 28.4429 33.7021 26.4875 36.708C23.1019 41.9121 21.3125 47.9445 21.3125 54.1529C21.3125 56.6149 21.5982 59.0784 22.1618 61.4752L25.1293 74.096C25.2562 74.6357 25.7373 74.9998 26.269 74.9998C26.3578 74.9998 26.4481 74.9896 26.5383 74.9684C27.1683 74.8203 27.559 74.1895 27.4108 73.5595L24.4433 60.9389C23.9211 58.7177 23.6562 56.4346 23.6562 54.153C23.6562 52.4827 23.797 50.8262 24.0721 49.1982L41.2342 59.9456V73.8278C41.2342 74.4749 41.759 74.9997 42.4061 74.9997C43.0532 74.9997 43.5779 74.4749 43.5779 73.8278V60.4686H46.4202V73.8278C46.4202 74.4749 46.9449 74.9997 47.592 74.9997C48.2391 74.9997 48.7639 74.4749 48.7639 73.8278V59.9456L65.926 49.1982C66.2011 50.8262 66.3419 52.4827 66.3419 54.153C66.3419 55.4055 66.2613 56.6702 66.1026 57.9122C66.0204 58.5542 66.4743 59.1411 67.1163 59.2232C67.1668 59.2298 67.2168 59.2328 67.2664 59.2328C67.8474 59.2328 68.3516 58.801 68.4272 58.2096C68.5987 56.8693 68.6855 55.5047 68.6855 54.1532C68.6855 47.9447 66.8959 41.9123 63.5105 36.7082C61.5552 33.7021 60.5216 30.2179 60.5216 26.6321ZM47.2554 58.1248H42.7429L24.5907 46.7574C25.2462 44.2104 26.2418 41.7553 27.5583 39.452H62.4399C63.7565 41.7554 64.752 44.2104 65.4076 46.7574L47.2554 58.1248Z" fill="#DA48F2"/>
<path d="M73.8281 24.9028H67.3409L67.9571 24.2866C68.4147 23.829 68.4147 23.087 67.9571 22.6293C67.4994 22.1718 66.7576 22.1718 66.2997 22.6293L63.6831 25.2459C63.2254 25.7036 63.2254 26.4456 63.6831 26.9033L66.2997 29.52C66.5286 29.7487 66.8285 29.8632 67.1284 29.8632C67.4282 29.8632 67.7281 29.7487 67.957 29.52C68.4146 29.0624 68.4146 28.3203 67.957 27.8626L67.3408 27.2464H73.828C74.4751 27.2464 74.9998 26.7217 74.9998 26.0746C74.9998 25.4275 74.4752 24.9028 73.8281 24.9028Z" fill="#DA48F2"/>
<path d="M22.043 27.8627C21.5853 28.3203 21.5853 29.0624 22.043 29.5201C22.2718 29.7489 22.5717 29.8634 22.8716 29.8634C23.1715 29.8634 23.4714 29.7489 23.7002 29.5201L26.3169 26.9034C26.7745 26.4458 26.7745 25.7038 26.3169 25.2461L23.7002 22.6293C23.2425 22.1718 22.5007 22.1718 22.0428 22.6293C21.5852 23.0869 21.5852 23.8289 22.0428 24.2866L22.659 24.9028H16.1719C15.5248 24.9028 15 25.4276 15 26.0747C15 26.7218 15.5248 27.2466 16.1719 27.2466H22.659L22.043 27.8627Z" fill="#DA48F2"/>
<path d="M45 32.1094C45.3082 32.1094 45.6105 31.984 45.8284 31.7659C46.0464 31.548 46.1719 31.2457 46.1719 30.9375C46.1719 30.6293 46.0465 30.327 45.8284 30.109C45.6105 29.891 45.3082 29.7656 45 29.7656C44.6918 29.7656 44.3895 29.8909 44.1715 30.109C43.9535 30.327 43.8281 30.6293 43.8281 30.9375C43.8281 31.2457 43.9534 31.548 44.1715 31.7659C44.3895 31.984 44.6918 32.1094 45 32.1094Z" fill="#DA48F2"/>
<path d="M66.2207 62.0586C65.9113 62.0586 65.6102 62.1829 65.3922 62.4021C65.173 62.6199 65.0488 62.9223 65.0488 63.2305C65.0488 63.5388 65.173 63.8398 65.3922 64.059C65.6102 64.2769 65.9114 64.4023 66.2207 64.4023C66.5289 64.4023 66.8312 64.2771 67.048 64.059C67.2672 63.8398 67.3915 63.5388 67.3915 63.2305C67.3915 62.9223 67.2672 62.6199 67.048 62.4021C66.8312 62.1829 66.5289 62.0586 66.2207 62.0586Z" fill="#DA48F2"/>
</svg>
