<svg width="90" height="90" viewBox="0 0 90 90" fill="none" xmlns="http://www.w3.org/2000/svg">
<path d="M0 8C0 3.58172 3.58172 0 8 0H70C81.0457 0 90 8.95431 90 20V82C90 86.4183 86.4183 90 82 90H8C3.58172 90 0 86.4183 0 82V8Z" fill="#161617"/>
<path d="M65.0426 47.7408C64.4682 48.0388 64.2441 48.7463 64.5421 49.3207C65.7271 51.6047 66.3281 54.1188 66.3281 56.793C66.3281 65.5398 59.2119 72.6558 50.465 72.6558C46.6412 72.6558 42.9565 71.3342 40.0898 68.9344C38.7823 67.84 37.1448 67.2373 35.4786 67.2372L26.5369 67.2368C23.3427 67.2368 20.3301 65.5398 18.6747 62.808C17.804 61.3712 17.3438 59.7236 17.3438 58.0436V55.874C17.3438 53.5614 18.5724 51.3802 20.5503 50.1817C21.1037 49.8463 21.2806 49.1257 20.9452 48.5721C20.6098 48.0187 19.8892 47.8419 19.3356 48.1772C18.5876 48.6305 17.9192 49.1877 17.3438 49.8237V46.1926C17.3438 39.7551 18.1656 33.332 19.7866 27.1018C20.5109 24.3178 22.6857 22.1208 25.4623 21.3682L40.0083 17.4254C41.0424 17.1448 42.1442 17.6353 42.6283 18.5909L45.5837 24.4235C46.1036 25.4496 46.1593 26.6516 45.7365 27.7213C45.3138 28.791 44.4513 29.6302 43.3704 30.0236L37.1006 32.3054C35.4248 32.9152 33.5794 32.3671 32.508 30.9418L31.0616 29.0174L31.7892 28.6771C32.3754 28.4029 32.6284 27.7054 32.3542 27.1191C32.0799 26.5329 31.3824 26.2802 30.7961 26.5541L30.0671 26.8952C29.1254 27.3358 27.9979 27.0042 27.4444 26.124C27.1 25.5762 26.3766 25.4112 25.8285 25.7558C25.2807 26.1002 25.1158 26.8238 25.4603 27.3717C26.1357 28.4458 27.2114 29.1369 28.3845 29.3567L29.6485 31.0382V31.4151C29.6485 35.7768 31.2423 39.9763 34.136 43.2397C36.3715 45.7609 37.6027 49.005 37.6027 52.3745V55.5077C37.6027 56.1549 38.1273 56.6796 38.7746 56.6796C39.4218 56.6796 39.9464 56.1549 39.9464 55.5077V52.3745C39.9464 50.1105 39.4705 47.895 38.5708 45.86C41.5979 42.5649 45.8528 40.6862 50.3435 40.6862C52.926 40.6862 55.3902 41.2826 57.6676 42.4588C58.2428 42.756 58.9496 42.5304 59.2466 41.9553C59.5437 41.3803 59.3182 40.6734 58.7432 40.3763C56.1668 39.0457 53.2623 38.3424 50.3436 38.3424C45.4661 38.3424 40.8304 40.2742 37.4051 43.689C36.9554 42.9868 36.4498 42.3163 35.8897 41.6847C33.9139 39.4565 32.6366 36.7258 32.1803 33.8193C33.8314 34.9317 35.9402 35.2216 37.9023 34.5077L44.1721 32.2259C45.8826 31.6034 47.2473 30.2755 47.9163 28.5828C48.5853 26.89 48.4972 24.9879 47.6745 23.3641L44.7192 17.5316C43.7352 15.5899 41.4965 14.5938 39.3953 15.1632L24.8491 19.1061C21.2628 20.0782 18.4539 22.9159 17.5183 26.5117C15.8473 32.9345 15 39.5561 15 46.1926V58.0436C15 60.152 15.5775 62.2195 16.6702 64.0227C18.7476 67.4509 22.5283 69.5806 26.5368 69.5806L35.4785 69.5809C36.5956 69.5809 37.6989 69.9896 38.5853 70.7316C41.8731 73.4839 46.0921 74.9996 50.465 74.9996C60.5043 74.9996 68.6718 66.8322 68.6718 56.793C68.6718 53.7824 67.9632 50.8253 66.6226 48.2413C66.3246 47.6669 65.6174 47.4427 65.0426 47.7408Z" fill="#01E5F3"/>
<path d="M41.7076 61.436C41.25 60.9784 40.508 60.9784 40.0502 61.436C39.5926 61.8936 39.5926 62.6356 40.0502 63.0934C42.8071 65.8501 46.4724 67.3684 50.3711 67.3684C54.2699 67.3684 57.9352 65.8501 60.692 63.0934C61.1496 62.6358 61.1496 61.8937 60.692 61.436C60.2344 60.9784 59.4924 60.9784 59.0346 61.436C54.2578 66.213 46.4847 66.213 41.7076 61.436Z" fill="#01E5F3"/>
<path d="M74.8854 22.7824C74.6901 22.3764 74.2797 22.1182 73.8293 22.1182H68.9095L71.0325 16.5921C71.1709 16.2318 71.1229 15.8264 70.9044 15.5082C70.6857 15.1901 70.3245 15 69.9385 15H61.9235C61.4223 15 60.9767 15.3188 60.8146 15.793L56.7641 27.6477C56.6419 28.0055 56.6998 28.4005 56.9198 28.7082C57.1398 29.0158 57.4949 29.1984 57.8731 29.1984H63.0003L61.3108 37.2729C61.1997 37.8039 61.4676 38.3418 61.9582 38.573C62.1185 38.6486 62.2887 38.6849 62.4573 38.6849C62.8049 38.6849 63.145 38.5301 63.373 38.2447L74.7445 24.022C75.0258 23.6702 75.0806 23.1883 74.8854 22.7824ZM64.6113 32.9429L65.5897 28.2665C65.662 27.9211 65.5747 27.5615 65.3521 27.2875C65.1296 27.0135 64.7955 26.8546 64.4426 26.8546H59.5118L62.7616 17.3438H68.233L66.11 22.8699C65.9716 23.2302 66.0195 23.6356 66.2381 23.9538C66.4567 24.2719 66.8179 24.462 67.2039 24.462H71.392L64.6113 32.9429Z" fill="#01E5F3"/>
<path d="M63.2914 45.3578C63.5094 45.1399 63.6348 44.8375 63.6348 44.5293C63.6348 44.2199 63.5094 43.9188 63.2914 43.7008C63.0734 43.4828 62.7711 43.3574 62.4629 43.3574C62.1547 43.3574 61.8523 43.4828 61.6344 43.7008C61.4164 43.9188 61.291 44.2199 61.291 44.5293C61.291 44.8375 61.4164 45.1399 61.6344 45.3578C61.8523 45.5758 62.1547 45.7012 62.4629 45.7012C62.7711 45.7013 63.0734 45.5758 63.2914 45.3578Z" fill="#01E5F3"/>
</svg>
