<svg width="50" height="50" viewBox="0 0 50 50" fill="none" xmlns="http://www.w3.org/2000/svg">
<path d="M41.902 43.5186C41.3769 43.3944 40.8513 43.7205 40.7278 44.2456L39.657 48.7996C39.5335 49.3246 39.8591 49.8504 40.3841 49.9737C40.4593 49.9915 40.5345 49.9999 40.6085 49.9999C41.0514 49.9999 41.4525 49.6966 41.5583 49.2467L42.6291 44.6927C42.7525 44.1677 42.427 43.6419 41.902 43.5186Z" fill="white"/>
<path d="M37.9341 9.69348C37.9341 7.17816 38.6428 4.72368 39.9835 2.59528L40.6753 1.49724C40.9627 1.04089 40.8259 0.437965 40.3695 0.150467C39.9131 -0.137129 39.3103 -0.000118091 39.0228 0.456227L38.331 1.55427C36.7936 3.99478 35.981 6.80932 35.981 9.69348C35.981 12.7737 36.7937 15.7738 38.3376 18.4235H11.6596C13.2037 15.7738 14.0163 12.7736 14.0163 9.69348C14.0163 6.80932 13.2037 3.99488 11.6663 1.55427L10.9745 0.456227C10.687 -0.000118091 10.0842 -0.137129 9.62771 0.150467C9.17137 0.437965 9.03445 1.04089 9.32195 1.49724L10.0137 2.59528C11.3545 4.72368 12.0631 7.17816 12.0631 9.69348C12.0631 12.6817 11.2018 15.5851 9.57224 18.09C6.75097 22.4268 5.25977 27.4538 5.25977 32.6275C5.25977 34.6792 5.49785 36.7321 5.96748 38.7295L8.44041 49.2468C8.54617 49.6966 8.94715 50 9.39021 50C9.46423 50 9.53943 49.9915 9.61462 49.9738C10.1396 49.8504 10.4652 49.3247 10.3417 48.7997L7.86874 38.2825C7.43358 36.4315 7.21288 34.5289 7.21288 32.6276C7.21288 31.2356 7.33016 29.8553 7.55946 28.4986L21.8612 37.4548V49.0233C21.8612 49.5626 22.2985 49.9999 22.8378 49.9999C23.377 49.9999 23.8144 49.5626 23.8144 49.0233V37.8906H26.1829V49.0233C26.1829 49.5626 26.6202 49.9999 27.1595 49.9999C27.6987 49.9999 28.136 49.5626 28.136 49.0233V37.4548L42.4378 28.4986C42.6671 29.8553 42.7844 31.2356 42.7844 32.6276C42.7844 33.6714 42.7172 34.7253 42.585 35.7602C42.5165 36.2953 42.8947 36.7843 43.4297 36.8528C43.4718 36.8583 43.5135 36.8608 43.5548 36.8608C44.0389 36.8608 44.4592 36.5009 44.5221 36.0081C44.665 34.8912 44.7374 33.754 44.7374 32.6277C44.7374 27.454 43.2461 22.427 40.4249 18.0902C38.7954 15.5851 37.9341 12.6816 37.9341 9.69348ZM26.8789 35.9375H23.1185L7.99159 26.4646C8.53787 24.342 9.36756 22.2961 10.4646 20.3767H39.5327C40.6299 22.2962 41.4595 24.342 42.0058 26.4646L26.8789 35.9375Z" fill="white"/>
<path d="M49.0234 8.25284H43.6175L44.1309 7.73936C44.5123 7.35801 44.5123 6.73965 44.1309 6.3582C43.7495 5.97695 43.1313 5.97695 42.7498 6.3582L40.5692 8.53878C40.1879 8.92012 40.1879 9.53848 40.5692 9.91993L42.7498 12.1005C42.9405 12.2911 43.1904 12.3865 43.4403 12.3865C43.6902 12.3865 43.9401 12.2911 44.1308 12.1005C44.5122 11.7192 44.5122 11.1008 44.1308 10.7193L43.6174 10.2059H49.0233C49.5626 10.2059 49.9999 9.76856 49.9999 9.2293C49.9999 8.69005 49.5627 8.25284 49.0234 8.25284Z" fill="white"/>
<path d="M5.86915 10.7194C5.48781 11.1008 5.48781 11.7192 5.86915 12.1006C6.05988 12.2912 6.30978 12.3866 6.55968 12.3866C6.80959 12.3866 7.05949 12.2912 7.25021 12.1006L9.43078 9.92003C9.81213 9.53868 9.81213 8.92032 9.43078 8.53887L7.25021 6.3582C6.86877 5.97695 6.2506 5.97695 5.86906 6.3582C5.48771 6.73955 5.48771 7.35791 5.86906 7.73936L6.38253 8.25284H0.976565C0.437306 8.25284 0 8.69014 0 9.2294C0 9.76866 0.437306 10.206 0.976565 10.206H6.38253L5.86915 10.7194Z" fill="white"/>
<path d="M25.0001 14.2578C25.2569 14.2578 25.5089 14.1534 25.6904 13.9716C25.872 13.7901 25.9766 13.5381 25.9766 13.2813C25.9766 13.0244 25.8721 12.7725 25.6904 12.5909C25.5089 12.4092 25.2569 12.3047 25.0001 12.3047C24.7432 12.3047 24.4913 12.4091 24.3096 12.5909C24.128 12.7725 24.0235 13.0244 24.0235 13.2813C24.0235 13.5381 24.1279 13.7901 24.3096 13.9716C24.4913 14.1534 24.7432 14.2578 25.0001 14.2578Z" fill="white"/>
<path d="M42.6836 39.2158C42.4258 39.2158 42.1748 39.3194 41.9932 39.5021C41.8105 39.6836 41.707 39.9355 41.707 40.1924C41.707 40.4493 41.8105 40.7002 41.9932 40.8828C42.1748 41.0645 42.4259 41.1689 42.6836 41.1689C42.9404 41.1689 43.1924 41.0646 43.3731 40.8828C43.5557 40.7002 43.6593 40.4493 43.6593 40.1924C43.6593 39.9355 43.5557 39.6836 43.3731 39.5021C43.1924 39.3194 42.9404 39.2158 42.6836 39.2158Z" fill="white"/>
</svg>
