<svg width="25" height="20" viewBox="0 0 25 20" fill="none" xmlns="http://www.w3.org/2000/svg">
<path d="M0 6.076V16C0 17.0609 0.438987 18.0783 1.22039 18.8284C2.00179 19.5786 3.0616 20 4.16667 20H20.8333C21.9384 20 22.9982 19.5786 23.7796 18.8284C24.561 18.0783 25 17.0609 25 16V4C25 2.93913 24.561 1.92172 23.7796 1.17157C22.9982 0.421427 21.9384 0 20.8333 0H4.16667C3.0616 0 2.00179 0.421427 1.22039 1.17157C0.438987 1.92172 0 2.93913 0 4V6.076ZM4.16667 2H20.8333C21.3859 2 21.9158 2.21071 22.3065 2.58579C22.6972 2.96086 22.9167 3.46957 22.9167 4V5.48L12.5 10.864L2.08333 5.48V4C2.08333 3.46957 2.30283 2.96086 2.69353 2.58579C3.08423 2.21071 3.61413 2 4.16667 2ZM2.08333 7.752L12.0062 12.88C12.158 12.9584 12.3277 12.9995 12.5 12.9995C12.6723 12.9995 12.842 12.9584 12.9938 12.88L22.9167 7.752V16C22.9167 16.5304 22.6972 17.0391 22.3065 17.4142C21.9158 17.7893 21.3859 18 20.8333 18H4.16667C3.61413 18 3.08423 17.7893 2.69353 17.4142C2.30283 17.0391 2.08333 16.5304 2.08333 16V7.752Z" fill="white"/>
</svg>
