<svg width="90" height="90" viewBox="0 0 90 90" fill="none" xmlns="http://www.w3.org/2000/svg">
<path d="M0 8C0 3.58172 3.58172 0 8 0H70C81.0457 0 90 8.95431 90 20V82C90 86.4183 86.4183 90 82 90H8C3.58172 90 0 86.4183 0 82V8Z" fill="#161617"/>
<path d="M73.8416 57.4851L73.0636 56.319V53.8116C73.0636 51.6952 72.5633 49.5769 71.6178 47.684C70.5146 45.4805 68.8153 43.6437 66.7017 42.376C65.3402 41.5592 63.7831 41.1286 62.197 41.1286C61.3376 41.1286 60.516 41.3241 59.766 41.6686C59.1709 41.2467 58.7664 40.6225 58.6174 39.9131L60.8393 39.3074C65.7572 37.9651 69.1927 33.4691 69.1927 28.3711C69.1927 23.1328 64.9308 18.8709 59.6519 18.8709C56.2368 18.8709 53.0626 20.7125 51.3681 23.6776L50.7846 24.6986C50.3946 25.3827 49.7317 25.884 48.9682 26.0747L47.9259 26.3359C46.7734 26.6234 45.9672 27.6559 45.9672 28.8453C45.9672 29.5362 46.2363 30.1865 46.725 30.6752L46.7946 30.7459L46.2721 32.3126C46.0698 32.9233 45.9672 33.5571 45.9672 34.1978C45.9672 37.0632 47.9995 39.4622 50.6985 40.0312C50.5417 40.6989 50.2098 41.3241 49.7211 41.8128L48.4698 43.0641H48.1349C47.4401 43.0641 46.7811 43.2402 46.1956 43.5479L46.094 43.4966C42.4834 41.6909 38.0241 41.6744 34.3894 43.4279C34.3748 43.2305 34.3545 43.0331 34.3545 42.8357V29.8091L35.3145 28.3691C35.6755 27.8282 35.928 27.233 36.0906 26.6137H38.2254V30.4846C38.2254 31.552 39.0935 32.42 40.1609 32.42H42.0963C43.1637 32.42 44.0318 31.552 44.0318 30.4846V16.9355C44.0318 15.8681 43.1637 15 42.0963 15H40.1609C39.0935 15 38.2254 15.8681 38.2254 16.9355V20.8064H36.29V18.8709C36.29 17.8035 35.4219 16.9355 34.3545 16.9355C32.7975 16.9355 31.4513 17.8596 30.8378 19.1893C30.441 18.9861 29.991 18.8709 29.5159 18.8709H25.645C24.385 18.8709 23.3205 19.6828 22.9199 20.8064H20.8064V16.9355C20.8064 15.8681 19.9383 15 18.8709 15H16.9355C15.8681 15 15 15.8681 15 16.9355V30.4836C15 31.551 15.8681 32.4191 16.9355 32.4191H18.8709C19.9383 32.4191 20.8064 31.551 20.8064 30.4836V26.6127H22.8376C23.0447 27.7691 23.5944 28.8336 24.4431 29.6823L24.6773 29.9165V48.4437C24.6773 52.4384 27.7962 55.8274 31.7765 56.1593L37.0274 56.5968C38.2119 57.2267 39.5425 57.58 40.9099 57.58C41.8012 57.58 42.6818 57.4377 43.5257 57.1561L43.8741 57.04C44.1344 57.8538 44.4508 58.6503 44.8331 59.4148C45.5763 60.8954 45.9672 62.5541 45.9672 64.2128V71.042C45.9672 73.2242 47.743 75 49.9252 75C51.2849 75 52.6465 74.6787 53.859 74.071L57.9583 72.0213L70.5697 67.5708C73.2194 66.634 74.999 64.1189 74.999 61.3096C74.999 59.9431 74.5984 58.6203 73.8416 57.4851ZM40.1609 16.9355H42.0963L42.0983 30.4836H40.1609V16.9355ZM38.2254 22.7418V24.6773H36.29V22.7418H38.2254ZM59.6925 20.8064C63.8634 20.8064 67.2572 24.2002 67.2572 28.3711C67.2572 32.5981 64.4092 36.3277 60.3312 37.4396L58.5477 37.9264V35.7229L60.5664 33.7042C61.1286 33.142 61.4509 32.3639 61.4509 31.5684C61.4509 29.933 60.1435 28.5966 58.5187 28.5491C58.2932 26.2905 56.7661 24.354 54.5781 23.6244L53.9432 23.4124C55.3716 21.7847 57.4493 20.8064 59.6925 20.8064ZM49.8381 44.4324L51.0894 43.1812C51.9091 42.3615 52.451 41.2951 52.6513 40.1609H54.6768V38.2254H51.9304C49.7094 38.2254 47.9027 36.4187 47.9027 34.1978C47.9027 33.7652 47.9724 33.3355 48.1088 32.9242L49.0107 30.2223L48.0943 29.3069C47.9724 29.184 47.9027 29.0165 47.9027 28.8453C47.9027 28.5453 48.1059 28.2849 48.3962 28.2133L49.4375 27.952C50.711 27.6346 51.8142 26.7985 52.4655 25.6585L52.8004 25.0721L53.9655 25.4602C55.5477 25.9876 56.6122 27.4633 56.6122 29.1327V30.4836H58.4306C59.0286 30.4836 59.5154 30.9704 59.5154 31.5684C59.5154 31.8539 59.4002 32.1336 59.198 32.3358L56.6122 34.9216V39.3064C56.6122 40.6622 57.1696 41.9134 58.117 42.8096C57.8025 43.1221 57.5161 43.4686 57.2742 43.8566L54.9535 47.5698C54.4445 48.3837 53.5678 48.8704 52.6058 48.8704C51.0797 48.8704 49.8381 47.6288 49.8381 46.1027V44.4324ZM24.6773 21.7741C24.6773 21.2399 25.1108 20.8064 25.645 20.8064H29.5159C30.0501 20.8064 30.4836 21.2399 30.4836 21.7741V23.7095C30.4836 24.2437 30.0501 24.6773 29.5159 24.6773H25.645C25.1108 24.6773 24.6773 24.2437 24.6773 23.7095V21.7741ZM16.9355 30.4836V16.9355H18.8709L18.8728 30.4836H16.9355ZM20.8064 22.7418H22.7418V23.7095V24.6773H20.8064V22.7418ZM42.915 55.3194C42.2676 55.5352 41.5931 55.6445 40.9099 55.6445C38.9261 55.6445 37.0303 54.6971 35.84 53.11L35.1287 52.1607L33.5803 53.322L34.2916 54.2713C34.3361 54.3303 34.3874 54.3816 34.4339 54.4387L31.9371 54.2307C28.9517 53.981 26.6127 51.4388 26.6127 48.4437V29.1153L25.8114 28.314C25.2966 27.7991 24.955 27.1614 24.7924 26.4705C25.0634 26.5547 25.346 26.6127 25.645 26.6127H29.5159C31.1165 26.6127 32.4191 25.3102 32.4191 23.7095V20.8064C32.4191 19.739 33.2871 18.8709 34.3545 18.8709V25.1476C34.3545 25.915 34.13 26.6572 33.7042 27.295L32.4191 29.2227V42.8347C32.4191 44.3986 32.7887 45.9653 33.4884 47.3675L35.2197 46.5014C35.0406 46.1434 34.8984 45.7679 34.7736 45.3866L35.0929 45.2269C38.03 43.7579 41.6212 43.6863 44.6376 44.9763C44.4944 45.1989 44.3637 45.4321 44.2621 45.6847C43.4676 47.6753 43.0641 49.7714 43.0641 51.9139C43.0641 53.0036 43.1783 54.0923 43.3902 55.1616L42.915 55.3194ZM44.9995 51.9139C44.9995 50.0181 45.3566 48.1649 46.0611 46.4056C46.3727 45.6266 47.084 45.1214 47.9027 45.0353V46.1037C47.9027 48.6972 50.0133 50.8068 52.6058 50.8068C54.2394 50.8068 55.7306 49.9804 56.5938 48.5966L58.9135 44.8844C59.6257 43.7453 60.8528 43.065 62.197 43.065C63.4318 43.065 64.6444 43.4018 65.705 44.0366C65.7369 44.056 65.7689 44.0753 65.8008 44.0947C63.1047 44.4063 60.668 45.8821 59.1409 48.1727C58.1199 49.7036 57.58 51.4862 57.58 53.3268C57.58 56.289 59.1574 59.0732 61.6967 60.5973L61.7373 60.6215L56.3984 65.1979L54.399 64.5321C54.0478 64.414 53.68 64.354 53.3065 64.354C51.9923 64.354 50.8097 65.0847 50.2223 66.2595L50.084 66.5363L48.1543 67.5001C48.0662 67.5446 47.9859 67.5988 47.9017 67.6492V64.2128C47.9017 62.256 47.4392 60.2964 46.5643 58.5487C45.5414 56.5 44.9995 54.2055 44.9995 51.9139ZM69.9262 65.7447L57.2577 70.2156L52.9929 72.3388C52.0465 72.8129 50.9868 73.0636 49.9252 73.0636C48.8104 73.0636 47.9027 72.1568 47.9027 71.041C47.9027 70.2698 48.3304 69.5759 49.0204 69.2314L51.5268 67.9791L51.9536 67.1256C52.212 66.6098 52.7297 66.2895 53.3065 66.2895C53.47 66.2895 53.6307 66.3147 53.7845 66.3669L56.8261 67.3811L65.0353 60.3448L62.6925 58.9386C60.7328 57.7619 59.5154 55.6126 59.5154 53.3268C59.5154 51.8694 59.9422 50.4575 60.7512 49.244C62.1196 47.1924 64.4092 45.9672 66.875 45.9672H68.0933C68.8065 46.7337 69.4114 47.6008 69.8865 48.5501C70.6994 50.1759 71.1281 51.9952 71.1281 53.8126V56.9055L72.2313 58.5593C72.7762 59.3761 73.0636 60.3273 73.0636 61.3105C73.0636 63.3002 71.8026 65.0818 69.9262 65.7447Z" fill="#91B5F8"/>
</svg>
