<svg width="50" height="50" viewBox="0 0 50 50" fill="none" xmlns="http://www.w3.org/2000/svg">
<path d="M24.9966 0C24.5414 0.00856275 24.2153 0.34529 24.2153 0.778198V2.3407C24.2153 2.86135 24.6061 3.12281 24.9966 3.12347C25.3871 3.12281 25.7778 2.86134 25.7778 2.3407V0.778198C25.7778 0.34529 25.4518 0.00847713 24.9966 0ZM20.7714 1.23749C20.0651 1.23218 19.7239 2.08902 20.2114 2.57263L21.3192 3.67432C22.0901 4.39112 23.1398 3.31106 22.427 2.57263L21.3192 1.46484C21.1722 1.31364 20.9824 1.23752 20.7714 1.23749ZM29.2218 1.23749C29.0109 1.2375 28.821 1.31364 28.674 1.46484L27.5662 2.57263C26.8534 3.31106 27.9031 4.39113 28.674 3.67432L29.7818 2.57263C30.2693 2.08902 29.9279 1.23203 29.2218 1.23749ZM19.772 6.25152C19.2421 6.25152 18.7768 6.52488 18.4918 6.91528L15.0891 11.5799C14.7193 12.0861 14.7754 12.7535 15.1532 13.2065C17.4896 16.0063 19.8853 18.7408 22.2699 21.4783C22.0188 21.9424 21.8716 22.4921 21.8716 23.0972V27.7847C21.8716 30.5804 21.1743 33.191 21.0995 36.8622L20.4647 36.7355C20.127 36.6682 19.7848 36.8286 19.6225 37.1323L13.3709 48.851C13.0955 49.3699 13.4686 49.9971 14.056 50H36.7153C37.035 50.0007 37.3225 49.8053 37.4417 49.5087L40.5697 41.6946C40.7504 41.2399 40.4717 40.7323 39.9914 40.6387L39.6649 40.5731C40.0514 40.1558 40.5567 39.6563 41.1297 39.122C42.2112 38.1135 43.539 36.9406 44.8315 35.6964C46.124 34.4522 47.3845 33.1362 48.3441 31.8161C49.3025 30.4976 49.9996 29.1682 49.9996 27.7878C50.0171 26.0548 49.542 22.8617 49.0704 19.9997C48.5985 17.1356 48.1182 14.6652 48.1182 14.6652C47.8609 13.3248 46.9344 12.4442 45.9164 12.2208C45.4862 12.1263 45.0451 12.134 44.627 12.2345L44.566 11.3846C44.2762 9.68238 42.9758 8.94842 41.798 9.03778C40.6203 9.12714 39.4907 10.075 39.4268 11.4655L39.1857 16.925L37.3043 13.1592C36.9352 12.4799 36.3616 12.0388 35.7296 11.8378C35.4887 11.7611 35.2389 11.7201 34.9896 11.7111C33.8165 10.0506 32.5679 8.36844 31.3626 6.71234C31.2232 6.50995 30.7358 6.25152 30.2166 6.25152H19.772ZM22.0806 7.81402L20.512 11.7187H16.9171L19.7659 7.82471L22.0806 7.81402ZM23.7622 7.81402H26.231L27.7905 11.7187H22.1981L23.7622 7.81402ZM27.911 7.81402H30.2166H30.2228C30.2284 7.82185 30.2338 7.82935 30.2397 7.83691L33.0731 11.7187H29.472L27.911 7.81402ZM41.9628 10.5911C42.3619 10.5911 42.855 10.7712 43.0203 11.6211L43.7466 22.3709C43.7758 22.803 44.1523 23.1287 44.5843 23.0972C45.0165 23.0681 45.3421 22.693 45.3106 22.261L44.7369 13.8504C44.9983 13.7291 45.3041 13.6875 45.5807 13.7482C46.0267 13.846 46.4232 14.1181 46.5847 14.9597C46.5847 14.9597 47.0567 17.4145 47.5247 20.2545C47.9926 23.0946 48.4503 26.3767 48.4356 27.7786C48.4356 28.601 47.946 29.7086 47.0806 30.899C46.2153 32.0895 45.0078 33.3516 43.7466 34.5657C42.4854 35.7799 41.1726 36.9504 40.0677 37.9806C39.1645 38.8229 38.4041 39.5384 37.8979 40.2206L22.6513 37.1719C22.6938 33.5396 23.4341 30.9102 23.4341 27.7847V23.0972C23.4341 22.1462 23.9873 21.662 24.4549 21.5576C24.882 21.4623 25.4816 21.6043 25.8251 22.58C26.9198 25.4369 27.9826 28.2772 28.941 31.1523C29.0766 31.5644 29.5233 31.787 29.9343 31.6483C30.3411 31.5102 30.5596 31.0701 30.4241 30.6625C30.3457 30.4271 30.2643 30.1924 30.1846 29.9576C30.489 29.7863 31.9339 28.9558 33.3767 27.8015C34.1836 27.156 34.9749 26.4259 35.545 25.6164C36.1128 24.8102 36.5049 23.8409 36.1798 22.8577L33.6819 15.0803C33.4006 14.0304 33.9534 13.5373 34.3807 13.3682C34.8819 13.17 35.5767 13.2586 35.9249 13.8992L41.4868 25.0122C41.4942 25.0259 41.5018 25.0386 41.5098 25.0519C42.0068 25.9125 42.1903 27.1103 42.1903 27.1103C42.2484 27.5392 42.6436 27.8385 43.0723 27.7786C43.5012 27.7206 43.8021 27.3253 43.7422 26.8967C43.7422 26.8967 43.5693 25.4983 42.8587 24.2676L40.6262 19.8029L40.9848 11.5372C41.0137 10.9564 41.4442 10.6294 41.9628 10.5911L41.9628 10.5911ZM17.2711 13.2812H20.5731L22.8863 19.8074C20.9983 17.6398 19.1198 15.4715 17.2711 13.2812ZM22.2332 13.2812H27.7554L25.3521 20.0851C25.1061 20.0107 24.8537 19.9741 24.6029 19.9768L22.2332 13.2812ZM29.4094 13.2812H32.3208C32.2076 13.5136 32.1281 13.8098 32.0874 14.0579C30.4389 15.9998 28.7754 17.9066 27.0962 19.8303L29.4094 13.2812ZM32.3803 16.1224L34.6951 23.3398C34.8037 23.6587 34.6974 24.1121 34.2709 24.7177C33.8443 25.3233 33.1426 25.9927 32.4017 26.5854C31.3407 27.4342 30.2217 28.1253 29.6658 28.4531C28.9109 26.3069 28.1121 24.1812 27.2854 22.0337C28.9778 20.0498 30.6883 18.0975 32.3803 16.1224ZM6.24202 17.186C5.88877 17.1853 5.57922 17.4218 5.48671 17.7628C4.82805 20.1757 3.23315 22.0011 1.28902 22.7051C0.59949 22.9528 0.59949 23.9283 1.28902 24.176C3.23392 24.8773 4.83194 26.6985 5.49282 29.1107C5.7053 29.8726 6.78483 29.8726 6.99733 29.1107C7.65599 26.6978 9.25241 24.8739 11.1965 24.1699C11.8861 23.9222 11.8861 22.9467 11.1965 22.699C9.25165 21.9977 7.65363 20.175 6.99275 17.7628C6.90081 17.4239 6.59313 17.1879 6.24202 17.186ZM6.24202 20.1263C7.02633 21.5784 7.90772 22.6001 9.19155 23.4375C7.83841 24.318 6.9869 25.3357 6.24507 26.7578C5.55684 25.2856 4.15627 23.9345 3.2986 23.4436C4.54866 22.6321 5.46231 21.6135 6.24202 20.1263ZM14.056 28.125C13.7082 28.1255 13.4031 28.3553 13.3068 28.6896C12.8909 30.1588 11.8887 31.2605 10.6778 31.6833C9.97733 31.9263 9.97733 32.916 10.6778 33.1589C11.8892 33.5801 12.8895 34.6838 13.3068 36.1526C13.5223 36.9137 14.6034 36.9094 14.8129 36.1464C15.2288 34.6772 16.231 33.5755 17.442 33.1527C18.1315 32.9049 18.1315 31.931 17.442 31.6832C16.2305 31.2624 15.2241 30.1584 14.8068 28.6896C14.7105 28.3553 14.4039 28.1255 14.056 28.125ZM14.056 30.8151C14.3718 31.3072 14.7862 31.8606 15.5316 32.4219C14.9593 32.8594 14.4695 33.3732 14.056 34.0271C13.5841 33.252 13.0503 32.7711 12.5775 32.4219C13.2143 32.0071 13.9342 31.0554 14.056 30.8151ZM4.29348 32.814C3.93852 32.8141 3.62849 33.0522 3.53817 33.3954C3.054 35.2536 1.87966 36.6374 0.498615 37.1612C-0.169203 37.4203 -0.165222 38.3662 0.504718 38.62C1.88624 39.1419 3.05238 40.5236 3.53817 42.3813C3.74289 43.1573 4.84408 43.1573 5.04878 42.3813C5.53295 40.5231 6.70729 39.1393 8.08834 38.6154C8.75715 38.359 8.75715 37.4116 8.08834 37.1551C6.70682 36.6333 5.53457 35.253 5.04878 33.3954C4.95846 33.0522 4.64842 32.8141 4.29348 32.814ZM4.29348 35.6949C4.83931 36.6198 5.33187 37.2414 6.19167 37.8876C5.25229 38.5671 4.75013 39.2986 4.29348 40.0864C3.72746 39.0155 2.88174 38.235 2.39681 37.8876C3.1633 37.3386 3.76852 36.5873 4.29348 35.6949ZM20.7241 38.3789L38.7631 41.9891L36.1859 48.436H15.3607L20.7241 38.3789Z" fill="white"/>
</svg>
