<svg width="60" height="60" viewBox="0 0 60 60" fill="none" xmlns="http://www.w3.org/2000/svg">
<path d="M16.0723 21.4285V2.14288C16.0723 0.959409 15.1129 0 13.9294 0C12.7459 0 11.7865 0.959409 11.7865 2.14288V34.2856C11.7865 35.4691 12.7459 36.4285 13.9294 36.4285C15.1129 36.4285 16.0723 35.4691 16.0723 34.2856V21.4285Z" fill="#F23849"/>
<path d="M9.64257 28.9288V7.5003C9.64257 6.31683 8.68316 5.35742 7.49969 5.35742C6.31622 5.35742 5.35681 6.31683 5.35681 7.5003V28.9288C5.35681 30.1122 6.31622 31.0716 7.49969 31.0716C8.68316 31.0716 9.64257 30.1122 9.64257 28.9288Z" fill="#F23849"/>
<path d="M1.07205 20.3569H3.21493V16.0713H1.07205C0.480374 16.0713 0.000610352 16.5509 0.000610352 17.1427V19.2856C0.000610352 19.8773 0.480256 20.3569 1.07205 20.3569Z" fill="#F23849"/>
<path d="M47.1424 26.0156V7.5003C47.1424 6.31683 46.183 5.35742 44.9995 5.35742C43.816 5.35742 42.8566 6.31683 42.8566 7.5003V25.7692C43.2135 25.7477 43.566 25.7146 43.9281 25.7146C45.0063 25.7198 46.082 25.8206 47.1424 26.0156Z" fill="#F23849"/>
<path d="M40.7159 7.49996V2.14288C40.7159 0.959409 39.7565 0 38.573 0C37.3895 0 36.4301 0.959409 36.4301 2.14288V27.3492C37.7975 26.7276 39.2372 26.2795 40.7158 26.0153V7.49996H40.7159Z" fill="#F23849"/>
<path d="M52.5006 19.2856V17.1427C52.5006 16.5511 52.0209 16.0713 51.4291 16.0713H49.2863V20.3569H51.4291C52.0209 20.357 52.5006 19.8774 52.5006 19.2856Z" fill="#F23849"/>
<path d="M43.9281 27.8572C35.0521 27.8572 27.8567 35.0526 27.8567 43.9285C27.8567 52.8045 35.0521 59.9999 43.9281 59.9999C52.804 59.9999 59.9994 52.8045 59.9994 43.9285C59.9893 35.0568 52.7999 27.8673 43.9281 27.8572ZM43.9281 57.857C36.2356 57.857 29.9996 51.621 29.9996 43.9285C29.9996 36.236 36.2356 30.0001 43.9281 30.0001C51.6206 30.0001 57.8565 36.236 57.8565 43.9285C57.8466 51.6169 51.6165 57.8471 43.9281 57.857Z" fill="#F23849"/>
<path d="M54.6456 42.8566H55.6624C55.4483 40.4792 54.5139 38.2238 52.9839 36.3916L52.266 37.1095C51.8457 37.5155 51.1773 37.5097 50.764 37.0965C50.3507 36.6832 50.345 36.015 50.751 35.5945L51.4689 34.8766C49.6366 33.346 47.3807 32.4112 45.0029 32.197V33.2138C45.0029 33.8055 44.5232 34.2853 43.9314 34.2853C43.3398 34.2853 42.86 33.8056 42.86 33.2138V32.197C40.4826 32.4111 38.2272 33.3456 36.395 34.8756L37.1129 35.5934C37.3915 35.8625 37.5031 36.2608 37.4051 36.6355C37.307 37.0101 37.0145 37.3026 36.6398 37.4007C36.2652 37.4988 35.8669 37.3871 35.5979 37.1086L34.88 36.3907C33.3495 38.223 32.4147 40.4789 32.2004 42.8567H33.2173C33.8089 42.8567 34.2887 43.3363 34.2887 43.9281C34.2887 44.5198 33.8091 44.9996 33.2173 44.9996H32.2004C32.4145 47.3769 33.349 49.6323 34.879 51.4645L35.5969 50.7467C36.0172 50.3406 36.6855 50.3465 37.0989 50.7597C37.5122 51.173 37.5179 51.8412 37.1119 52.2617L36.394 52.9795C40.757 56.6251 47.1038 56.6251 51.4668 52.9795L50.7489 52.2617C50.3429 51.8413 50.3487 51.173 50.7619 50.7597C51.1752 50.3463 51.8434 50.3406 52.2639 50.7467L52.9818 51.4645C54.5125 49.6326 55.4478 47.3772 55.6624 44.9996H54.6456C54.0539 44.9996 53.5742 44.5199 53.5742 43.9281C53.5742 43.3363 54.0538 42.8566 54.6456 42.8566ZM48.2171 44.9995H46.9485C46.5067 46.2592 45.3304 47.1133 43.9958 47.1434C42.6611 47.1735 41.4475 46.3734 40.9494 45.1348C40.4512 43.8963 40.7727 42.4787 41.7565 41.5762L40.1921 37.9216C39.969 37.38 40.2222 36.7596 40.7606 36.5287C41.299 36.2979 41.923 36.5422 42.1614 37.0773L43.7268 40.7341C43.7954 40.7341 43.8618 40.7137 43.9314 40.7137C45.2887 40.7193 46.4962 41.5769 46.9485 42.8566H48.2171C48.8088 42.8566 49.2885 43.3362 49.2885 43.928C49.2884 44.5198 48.8088 44.9995 48.2171 44.9995Z" fill="#F23849"/>
<path d="M43.9281 45.0001C44.5198 45.0001 44.9995 44.5204 44.9995 43.9286C44.9995 43.3369 44.5198 42.8572 43.9281 42.8572C43.3363 42.8572 42.8566 43.3369 42.8566 43.9286C42.8566 44.5204 43.3363 45.0001 43.9281 45.0001Z" fill="#F23849"/>
<path d="M18.2146 16.0713H34.286V20.3569H18.2146V16.0713Z" fill="#F23849"/>
</svg>
