<svg width="60" height="60" viewBox="0 0 60 60" fill="none" xmlns="http://www.w3.org/2000/svg">
<path d="M9.31088 9.89969L16.1239 3.08431L13.4487 0.40824C12.9046 -0.13608 11.9239 -0.13608 11.3798 0.40824L6.63576 5.15396C6.36369 5.42613 6.20749 5.80384 6.20749 6.18879C6.20749 6.57375 6.36369 6.95146 6.63576 7.22362L9.31088 9.89969Z" fill="#F23849"/>
<path d="M7.2403 15.5021C7.2403 15.887 7.3965 16.2648 7.66856 16.5369L9.30922 18.1782L24.3979 3.08415L22.7572 1.44291C22.2131 0.898588 21.2324 0.898588 20.6883 1.44291L7.66856 14.4673C7.3965 14.7394 7.2403 15.1171 7.2403 15.5021Z" fill="#F23849"/>
<path d="M8.27469 22.746C8.27469 23.1309 8.43089 23.5086 8.70296 23.7808L10.6953 25.7739C12.0701 25.3165 13.5142 25.0174 15.0101 24.8943L32.6735 7.22354C32.9456 6.95138 33.1018 6.57367 33.1018 6.18872C33.1018 5.80376 32.9456 5.42605 32.6735 5.15389L29.9984 2.47782C29.4543 1.9335 28.4736 1.9335 27.9295 2.47782L8.70296 21.7111C8.43089 21.9833 8.27469 22.361 8.27469 22.746Z" fill="#F23849"/>
<path d="M45.0874 32.0594L27.9298 14.8958L21.1168 21.7111L29.3708 29.968C29.5932 30.1791 29.8084 30.3954 30.0205 30.6179L38.2744 38.8748L45.0874 32.0594Z" fill="#F23849"/>
<path d="M58.965 38.2686C58.965 37.8836 58.8088 37.5059 58.5367 37.2338L56.8961 35.5925L41.8074 50.6865L43.4481 52.3278C43.9922 52.8721 44.9729 52.8721 45.517 52.3278L58.5367 39.3034C58.8088 39.0313 58.965 38.6536 58.965 38.2686Z" fill="#F23849"/>
<path d="M57.9287 31.0247C57.9287 30.6397 57.7725 30.262 57.5005 29.9898L54.8254 27.3138C54.2812 26.7694 53.3006 26.7694 52.7564 27.3138L35.093 44.9845C34.9699 46.4809 34.6709 47.9244 34.2137 49.3008L36.205 51.2928C36.7491 51.8371 37.7298 51.8371 38.2739 51.2928L57.5005 32.0595C57.7725 31.7873 57.9287 31.4096 57.9287 31.0247Z" fill="#F23849"/>
<path d="M59.5721 46.5472L56.8969 43.8711L50.084 50.6865L52.7591 53.3625C53.3032 53.9069 54.2839 53.9069 54.828 53.3625L59.5721 48.6168C59.8441 48.3447 60.0003 47.9669 60.0003 47.582C60.0003 47.197 59.8441 46.8193 59.5721 46.5472Z" fill="#F23849"/>
<path d="M27.8992 31.4222C24.9334 28.6188 20.9445 26.8855 16.5511 26.8855C7.42507 26.8855 -0.000305176 34.3135 -0.000305176 43.4428C-0.000305176 52.572 7.42507 60 16.5511 60C25.6771 60 33.1025 52.572 33.1025 43.4428C33.1025 39.0478 31.3698 35.0575 28.5674 32.0907L27.8992 31.4222ZM16.5511 56.8955C9.12366 56.8955 3.10309 50.8728 3.10309 43.4428C3.10309 36.0127 9.12366 29.99 16.5511 29.99C23.9786 29.99 29.9991 36.0127 29.9991 43.4428C29.9991 50.8728 23.9786 56.8955 16.5511 56.8955Z" fill="#F23849"/>
<path d="M16.5519 50.6868C20.5511 50.6868 23.7931 47.4437 23.7931 43.443C23.7931 39.4424 20.5511 36.1992 16.5519 36.1992C12.5526 36.1992 9.31061 39.4424 9.31061 43.443C9.31061 47.4437 12.5526 50.6868 16.5519 50.6868Z" fill="#F23849"/>
</svg>
