<svg width="50" height="50" viewBox="0 0 50 50" fill="none" xmlns="http://www.w3.org/2000/svg">
<path d="M4.5084 40.8471H7.25372C7.25616 40.8471 7.25782 40.8447 7.25705 40.8424L5.56173 36.2086C5.53702 36.1408 5.51183 36.074 5.48712 36.0082C5.28526 35.4716 5.05636 34.8634 5.31612 34.2834C5.47003 33.9398 5.75997 33.6868 6.17784 33.5311L8.85626 32.5334C8.85949 32.5322 8.86271 32.5315 8.86593 32.5303C8.86964 32.529 8.87306 32.5272 8.87677 32.526L13.2451 31.0462C13.312 31.0236 13.3539 31.006 13.3788 30.9939C13.3797 30.9936 13.3801 30.993 13.3804 30.9921C13.4021 30.9182 13.4292 30.7745 13.4502 30.6637L14.5204 25.0561C14.5204 25.0556 14.5204 25.0552 14.5204 25.0547L13.7205 20.9614C13.7201 20.9593 13.718 20.958 13.7159 20.9587L13.0803 21.1789C13.0788 21.1794 13.0779 21.1807 13.0779 21.1822V24.2177C13.0779 25.6931 11.9058 26.8966 10.467 26.9006H10.4533C9.75822 26.9006 9.07531 26.6131 8.57785 26.1104C8.07853 25.6058 7.80343 24.9396 7.80343 24.2346V19.1918C7.80343 19.182 7.80363 19.1723 7.80402 19.1624C7.84669 18.0678 8.56261 17.0928 9.58732 16.7357L14.4819 15.0428C14.4825 15.0426 14.4832 15.0421 14.4836 15.0415L15.6854 13.2847C15.6865 13.2832 15.6861 13.281 15.6845 13.2799C14.7741 12.6483 14.0616 11.7288 13.5621 10.5338C13.5551 10.5169 13.5491 10.4998 13.5434 10.4826C13.5427 10.4805 13.5416 10.4787 13.5409 10.4767C13.5404 10.4749 13.5399 10.4732 13.5393 10.4714C13.5388 10.4698 13.5383 10.4682 13.5378 10.4667C12.8451 8.33455 12.7423 6.37558 13.2409 4.80124C13.7763 3.11023 14.9817 1.8853 16.7259 1.259C17.554 0.96068 18.3623 0.967724 19.2183 0.974967C20.4326 0.985383 21.8106 0.997189 23.6295 0.0781223C23.983 -0.100651 24.4117 0.0374468 24.5996 0.389835C25.4562 1.99552 25.2658 3.50151 24.0981 4.62346C24.0968 4.62465 24.0966 4.62653 24.0976 4.62792C24.8044 5.65572 25.188 6.87678 25.188 8.1398C25.188 10.1931 24.0089 12.195 22.1848 13.3475C22.1831 13.3485 22.1827 13.3507 22.1837 13.3524L24.0556 16.3309C24.0563 16.3319 24.0574 16.3325 24.0585 16.3326L25.6259 16.3407C25.6271 16.3407 25.6282 16.3401 25.6289 16.3391L27.4023 13.7216C28.2248 12.5088 29.8677 12.2005 31.0654 13.0344C31.6506 13.4434 32.0421 14.0618 32.1676 14.7761C32.2913 15.4795 32.1383 16.1845 31.7374 16.7611L28.9723 20.7382C28.9703 20.7412 28.968 20.7443 28.9659 20.7474C28.2007 21.8131 27.531 21.8153 26.5978 21.8184H24.38C24.3781 21.8184 24.3765 21.8199 24.3765 21.8219L24.3704 24.7399C24.3704 24.7409 24.3707 24.7418 24.3714 24.7425L27.5118 27.8583C27.512 27.8584 27.5121 27.8586 27.5123 27.8588C28.2774 28.6193 28.6653 29.5354 28.6653 30.5817V36.959C28.6653 36.9605 28.6663 36.9619 28.6678 36.9623C29.3769 37.1515 30.2278 37.5931 30.9192 38.3239C31.5876 39.0302 31.9893 39.891 32.1045 40.8443C32.1047 40.846 32.1062 40.8473 32.108 40.8473H35.1931C35.1951 40.8473 35.1966 40.8457 35.1966 40.8438V40.5369C35.1966 37.8055 37.2303 35.5484 39.8411 35.2407C39.8428 35.2405 39.8441 35.239 39.8441 35.2372V21.7553C39.8441 21.7526 39.8412 21.7508 39.8388 21.7522L38.4855 22.5322C38.0637 22.7751 37.5972 22.8905 37.1337 22.8905C36.2059 22.8904 35.2896 22.4281 34.7667 21.6C34.3752 20.985 34.2528 20.2605 34.4219 19.5599C34.5912 18.8591 35.0298 18.2739 35.6571 17.9126L45.8595 12.0334C47.1228 11.3058 48.7923 11.7227 49.5817 12.9636C49.9729 13.5801 50.0951 14.3052 49.9255 15.0054C49.756 15.7049 49.3176 16.2891 48.6908 16.6501L45.3685 18.5649C45.3675 18.5655 45.3668 18.5667 45.3668 18.568V25.8784C45.3668 26.2877 45.0563 26.6461 44.6536 26.6567C44.2403 26.6674 43.9019 26.3304 43.9019 25.9129V19.4163C43.9019 19.4136 43.899 19.4119 43.8967 19.4132L41.3104 20.9039C41.3093 20.9045 41.3087 20.9056 41.3087 20.9069V35.1999C41.3087 35.2019 41.3102 35.2035 41.3122 35.2035H43.8985C43.9005 35.2035 43.902 35.2019 43.902 35.1999V29.6039C43.902 29.1946 44.2125 28.8362 44.6152 28.8256C45.0285 28.8149 45.3669 29.1519 45.3669 29.5694V35.1998C45.3669 35.2018 45.3684 35.2034 45.3704 35.2034H47.8902C48.8165 35.2034 49.5674 35.9662 49.5674 36.9072V48.2972C49.5674 49.2377 48.8169 50 47.8912 50H35.9289H4.5084C2.02237 50 0 47.947 0 45.4235C0 42.9001 2.02246 40.8471 4.5084 40.8471ZM26.5993 20.3301C27.4354 20.3275 27.4541 20.3274 27.7791 19.8749L30.541 15.9024C30.7142 15.6532 30.7798 15.3461 30.7256 15.0375C30.6696 14.718 30.4955 14.442 30.2363 14.2611C29.7041 13.8903 28.9738 14.0271 28.6086 14.5652L26.6825 17.4084C26.429 17.7787 26.147 17.8298 25.8763 17.8298L24.3883 17.8222C24.3864 17.8222 24.3848 17.8238 24.3848 17.8258L24.3795 20.3266C24.3795 20.3285 24.3811 20.3301 24.383 20.3301H26.5993ZM48.5031 14.6499C48.5754 14.3513 48.5213 14.0388 48.3511 13.7707C48.1038 13.3821 47.6583 13.1628 47.2138 13.1628C46.9951 13.1628 46.7766 13.2159 46.5821 13.3279L36.3795 19.207C36.3795 19.207 36.3795 19.207 36.3794 19.2071C36.1065 19.3642 35.9165 19.6154 35.8443 19.9145C35.7723 20.2131 35.8262 20.5247 35.9978 20.7943C36.3643 21.3747 37.1727 21.5775 37.7626 21.2378L47.9681 15.3557C48.2411 15.1985 48.431 14.9479 48.5031 14.6499ZM6.67609 34.9427C6.70753 35.0844 6.79376 35.3135 6.85519 35.4771C6.88165 35.5475 6.9087 35.6192 6.93488 35.6911L8.82052 40.8448C8.82101 40.8462 8.82238 40.8471 8.82384 40.8471H9.26193C9.33673 40.8471 9.4923 40.8471 9.68039 40.5692C10.1868 39.8209 10.2111 38.2176 10.0625 37.8134L10.0316 37.7348C10.0304 37.7318 10.0293 37.7287 10.0281 37.7258L8.68517 34.1857C8.68449 34.1839 8.68253 34.183 8.68068 34.1836L6.68488 34.927C6.68165 34.9329 6.67941 34.9369 6.67609 34.9427ZM13.7081 32.4581L10.071 33.6901C10.0692 33.6907 10.0682 33.6929 10.0689 33.6948L10.3688 34.4855L11.1399 36.5184C11.1405 36.5202 11.1425 36.521 11.1443 36.5205L17.609 34.2631C18.0482 34.1095 18.1613 33.9535 18.3135 33.6367L19.5598 31.0157C19.5606 31.014 19.56 31.012 19.5584 31.0111C18.4022 30.3736 16.6339 29.3639 15.5165 27.6856C15.5148 27.6831 15.5109 27.6839 15.5103 27.6869L14.8883 30.9459C14.7727 31.5574 14.6633 32.1349 13.7081 32.4581ZM15.4344 16.3523C15.3345 16.3523 15.2331 16.3655 15.1323 16.3927C15.1251 16.3947 15.1201 16.396 15.1149 16.3973C15.1142 16.3975 15.1136 16.3976 15.1129 16.3978C15.1101 16.3985 15.1074 16.3991 15.1036 16.3999C15.0924 16.403 15.081 16.4073 15.0699 16.4113C15.0662 16.4127 15.0625 16.414 15.0588 16.4153L10.0611 18.1438C9.60949 18.3012 9.2923 18.728 9.26828 19.2084V24.2346C9.26828 24.5406 9.38996 24.8321 9.61086 25.0553C9.83576 25.2825 10.1423 25.4125 10.4549 25.4125C10.457 25.4125 10.459 25.4125 10.4611 25.4125C11.0963 25.4107 11.6131 24.8747 11.6131 24.2176V20.986C11.6131 20.9622 11.6116 20.9398 11.6107 20.9189C11.5752 20.2306 11.9822 19.986 12.227 19.9018L15.8122 18.6605C15.8124 18.6604 15.8127 18.6604 15.8129 18.6603C16.1074 18.5584 16.3458 18.3446 16.4842 18.0584C16.622 17.7733 16.6429 17.4531 16.5427 17.1554C16.3785 16.6664 15.9236 16.3523 15.4344 16.3523ZM23.582 1.73788C23.5814 1.7358 23.579 1.7347 23.5771 1.7355C21.7839 2.48482 20.3692 2.47301 19.2059 2.4628C18.4512 2.45655 17.7999 2.45089 17.2146 2.66161C14.6474 3.58345 14.251 5.8331 14.4399 7.73205C14.4402 7.73513 14.4439 7.73632 14.4458 7.73404C14.6325 7.52014 14.8601 7.31865 15.137 7.14345C15.1373 7.14325 15.1375 7.14295 15.1378 7.14275C15.9563 6.12994 17.1042 5.20988 18.6161 5.09311C19.8508 4.99807 21.5619 4.63119 22.6612 3.88644C22.6618 3.88604 22.6623 3.88574 22.6629 3.88534C23.5454 3.29109 23.843 2.6124 23.582 1.73788ZM23.7231 8.1396C23.7231 7.18164 23.432 6.25444 22.8941 5.47437C22.892 5.47387 22.8907 5.47347 22.8886 5.47298C21.2842 6.31764 19.3388 6.52984 18.7268 6.57697C16.6321 6.73858 15.3828 9.368 15.0312 10.2213C15.0308 10.2222 15.0309 10.2232 15.0313 10.2241C15.5113 11.2373 16.1908 11.9574 17.0559 12.3674C17.6465 12.6496 18.346 12.7927 19.135 12.7927C19.6879 12.7927 20.2766 12.656 20.8365 12.3977C22.2734 11.7324 23.7231 10.1578 23.7231 8.1396ZM20.8475 13.9915C20.8466 13.9901 20.845 13.9895 20.8435 13.9901C20.2765 14.1809 19.6955 14.2809 19.135 14.2809C18.3684 14.2809 17.6586 14.1694 17.0166 13.9508C17.0152 13.9503 17.0136 13.9508 17.0127 13.9521L16.291 15.0072C16.2898 15.0091 16.2906 15.0117 16.2927 15.0125C17.0376 15.2743 17.6586 15.8689 17.9288 16.6749C18.1554 17.348 18.1094 18.0724 17.7989 18.7145C17.4878 19.3579 16.9502 19.8391 16.2848 20.0691L15.1212 20.4721C15.1196 20.4727 15.1186 20.4744 15.1189 20.4762L15.8674 24.3071C15.8677 24.3088 15.8692 24.31 15.8708 24.31H22.9027C22.9046 24.31 22.9062 24.3084 22.9062 24.3064L22.9209 17.2921C22.9209 17.2914 22.9207 17.2907 22.9204 17.2902L20.8475 13.9915ZM27.2003 30.5815C27.2003 29.9419 26.9673 29.3992 26.4881 28.9227L23.3399 25.799C23.3392 25.7983 23.3383 25.798 23.3374 25.798H16.2063C16.2038 25.798 16.2021 25.8006 16.203 25.8029C16.9361 27.8756 19.0493 29.0385 20.3734 29.7673C20.5593 29.8696 20.735 29.9663 20.8803 30.051L23.2627 31.4032C24.2551 31.9668 24.4371 32.2619 24.408 33.2615C24.4044 33.3845 24.4003 33.5239 24.4003 33.6914L24.3868 36.8495C24.3868 36.8515 24.3883 36.8531 24.3903 36.8531H27.1967C27.1987 36.8531 27.2002 36.8515 27.2002 36.8495V30.5815H27.2003ZM29.8629 39.3549C29.2087 38.6634 28.3244 38.3412 27.9328 38.3412H24.3857C24.3837 38.3412 24.3822 38.3428 24.3822 38.3448L24.3768 40.8437C24.3768 40.8456 24.3784 40.8472 24.3803 40.8472H30.6211C30.6234 40.8472 30.625 40.8451 30.6247 40.843C30.523 40.2816 30.2681 39.7832 29.8629 39.3549ZM48.1026 48.2963V36.9073C48.1026 36.7886 48.007 36.6916 47.8903 36.6916H40.4508C38.3613 36.6916 36.6614 38.4165 36.6614 40.5368V41.5913V48.5086C36.6614 48.5106 36.663 48.5122 36.6649 48.5122H47.8902C48.007 48.5121 48.1026 48.4149 48.1026 48.2963ZM4.5084 48.5121H35.1929C35.1949 48.5121 35.1964 48.5105 35.1964 48.5085V46.1712C35.1964 46.1693 35.1949 46.1677 35.1929 46.1677H4.45577C4.05284 46.1677 3.70001 45.8523 3.68966 45.4432C3.67911 45.0233 4.01085 44.6796 4.42178 44.6796H35.1929C35.1949 44.6796 35.1964 44.678 35.1964 44.676V42.3387C35.1964 42.3367 35.1949 42.3352 35.1929 42.3352H31.4043H23.6428H18.4875C18.0846 42.3352 17.7318 42.0198 17.7214 41.6106C17.7109 41.1908 18.0426 40.847 18.4535 40.847H22.9084C22.9104 40.847 22.912 40.8454 22.912 40.8435L22.9188 37.6651V37.597C22.9188 37.5965 22.9189 37.596 22.9189 37.5955C22.9189 37.5955 22.9188 37.5944 22.9188 37.5938L22.9356 33.6881C22.9356 33.5017 22.9402 33.3441 22.9439 33.2174C22.9451 33.175 22.9464 33.131 22.9473 33.0889C22.9494 32.9974 22.903 32.9122 22.8259 32.8647C22.7251 32.8025 22.6083 32.7361 22.5482 32.7021L20.8477 31.7369C20.8459 31.7359 20.8437 31.7366 20.8428 31.7385L19.6313 34.2864C19.3784 34.8128 19.0163 35.3447 18.0854 35.6701L11.5728 37.9442C11.5712 37.9447 11.5702 37.9462 11.5704 37.9479C11.6585 38.7502 11.5821 39.9157 11.1914 40.8422C11.1904 40.8445 11.1921 40.847 11.1945 40.847H14.9453C15.3483 40.847 15.7011 41.1624 15.7115 41.5715C15.722 41.9914 15.3903 42.3352 14.9793 42.3352H9.26183H8.31222H4.50831C2.83008 42.3352 1.46475 43.7206 1.46475 45.4235C1.46484 47.1266 2.83018 48.5121 4.5084 48.5121Z" fill="white"/>
<path d="M42.496 43.7354H43.9563C44.3592 43.7354 44.7121 44.0507 44.7224 44.4599C44.733 44.8797 44.4012 45.2235 43.9903 45.2235H42.5299C42.127 45.2235 41.7742 44.9081 41.7638 44.499C41.7533 44.079 42.0851 43.7354 42.496 43.7354Z" fill="white"/>
<path d="M42.4953 40.2207H43.9583C44.3612 40.2207 44.714 40.5361 44.7244 40.9452C44.7349 41.3651 44.4032 41.7088 43.9922 41.7088H42.5292C42.1263 41.7088 41.7735 41.3934 41.7631 40.9843C41.7525 40.5644 42.0843 40.2207 42.4953 40.2207Z" fill="white"/>
</svg>
