<svg width="12" height="12" viewBox="0 0 12 12" fill="none" xmlns="http://www.w3.org/2000/svg">
<path d="M6 0C7.5913 0 9.11742 0.632141 10.2426 1.75736C11.3679 2.88258 12 4.4087 12 6C12 7.5913 11.3679 9.11742 10.2426 10.2426C9.11742 11.3679 7.5913 12 6 12C4.4087 12 2.88258 11.3679 1.75736 10.2426C0.632141 9.11742 0 7.5913 0 6C0 4.4087 0.632141 2.88258 1.75736 1.75736C2.88258 0.632141 4.4087 0 6 0ZM6 1.2C4.72696 1.2 3.50606 1.70571 2.60589 2.60589C1.70571 3.50606 1.2 4.72696 1.2 6C1.2 7.27304 1.70571 8.49394 2.60589 9.39411C3.50606 10.2943 4.72696 10.8 6 10.8C7.27304 10.8 8.49394 10.2943 9.39411 9.39411C10.2943 8.49394 10.8 7.27304 10.8 6C10.8 4.72696 10.2943 3.50606 9.39411 2.60589C8.49394 1.70571 7.27304 1.2 6 1.2ZM5.4 3C5.54043 2.99995 5.67643 3.04917 5.78431 3.13907C5.89219 3.22897 5.96512 3.35386 5.9904 3.492L6 3.6V6H7.8C7.94994 5.99972 8.09454 6.05559 8.20534 6.15661C8.31614 6.25763 8.3851 6.39646 8.39865 6.54579C8.4122 6.69511 8.36935 6.84409 8.27854 6.9634C8.18773 7.0827 8.05554 7.16369 7.908 7.1904L7.8 7.2H5.4C5.25957 7.20005 5.12357 7.15083 5.01569 7.06093C4.90781 6.97103 4.83488 6.84614 4.8096 6.708L4.8 6.6V3.6C4.8 3.44087 4.86321 3.28826 4.97574 3.17574C5.08826 3.06321 5.24087 3 5.4 3Z" fill="#F23849"/>
</svg>
