<svg width="25" height="20" viewBox="0 0 25 20" fill="none" xmlns="http://www.w3.org/2000/svg">
<path d="M0 9.99985C0 9.43937 0.418006 8.97617 0.96034 8.90287L1.11111 8.89276L20.643 8.89365L13.5867 1.89161C13.1518 1.46019 13.1503 0.759224 13.5833 0.325947C13.9769 -0.0679398 14.5941 -0.104996 15.0298 0.215649L15.1546 0.322577L24.1176 9.21475C24.1749 9.27161 24.2247 9.33316 24.267 9.39815C24.2789 9.41772 24.2911 9.43773 24.3026 9.45814C24.3132 9.47565 24.3227 9.49382 24.3318 9.51219C24.3443 9.53892 24.3566 9.56654 24.3677 9.59472C24.3767 9.61645 24.3843 9.63758 24.3912 9.65888C24.3994 9.68529 24.4073 9.71344 24.4142 9.74202C24.4192 9.76197 24.4233 9.78117 24.4268 9.80045C24.4317 9.82913 24.4359 9.85881 24.4389 9.88885C24.4415 9.91175 24.4431 9.93445 24.4439 9.95717C24.4442 9.97094 24.4444 9.98537 24.4444 9.99985L24.4439 10.0427C24.443 10.0645 24.4415 10.0862 24.4394 10.1078L24.4444 9.99985C24.4444 10.0697 24.438 10.1381 24.4255 10.2043C24.4226 10.2202 24.4192 10.2364 24.4154 10.2526C24.4075 10.2859 24.3984 10.318 24.3879 10.3495C24.3827 10.3651 24.3767 10.3818 24.3703 10.3984C24.3573 10.4317 24.3432 10.4635 24.3277 10.4944C24.3205 10.5089 24.3124 10.5242 24.3039 10.5392C24.2901 10.5638 24.2758 10.5872 24.2606 10.61C24.25 10.6261 24.2381 10.6429 24.2258 10.6594L24.2162 10.6721C24.1863 10.7111 24.1538 10.748 24.119 10.7827L24.1177 10.7837L15.1547 19.6774C14.7199 20.1088 14.0164 20.1074 13.5834 19.6741C13.1897 19.2803 13.1551 18.6651 13.4788 18.2324L13.5866 18.1085L20.64 11.1078L1.11111 11.1069C0.497461 11.1069 0 10.6113 0 9.99985Z" fill="white"/>
</svg>
