<svg width="16" height="16" viewBox="0 0 16 16" fill="none" xmlns="http://www.w3.org/2000/svg">
<path fill-rule="evenodd" clip-rule="evenodd" d="M8 0C5.82667 0 5.556 0.00933333 4.70133 0.0493333C1.79467 0.182667 0.181333 1.79467 0.048 4.70133C0.00933333 5.556 0 5.828 0 8C0 10.1733 0.00933333 10.4453 0.048 11.2987C0.181333 14.204 1.79467 15.8187 4.70133 15.952C5.556 15.9907 5.82667 16 8 16C10.1733 16 10.4453 15.9907 11.3 15.952C14.2013 15.8187 15.8213 14.2067 15.952 11.2987C15.9907 10.4453 16 10.1733 16 8C16 5.828 15.9907 5.556 15.952 4.70133C15.8213 1.79867 14.2067 0.181333 11.3 0.0493333C10.4453 0.00933333 10.1733 0 8 0ZM8.00007 1.44238C10.1361 1.44238 10.3894 1.45038 11.2334 1.48905C13.4027 1.58772 14.4134 2.61572 14.5134 4.76772C14.5507 5.61172 14.5587 5.86372 14.5587 7.99972C14.5587 10.1357 14.5507 10.389 14.5134 11.2317C14.4134 13.3824 13.4041 14.413 11.2334 14.5117C10.3894 14.549 10.1374 14.5584 8.00007 14.5584C5.86407 14.5584 5.61074 14.5504 4.76807 14.5117C2.59474 14.4117 1.58807 13.3797 1.48807 11.2317C1.45074 10.389 1.44141 10.1357 1.44141 7.99972C1.44141 5.86372 1.45074 5.61038 1.48807 4.76772C1.58674 2.61438 2.59741 1.58638 4.76807 1.48772C5.61074 1.44905 5.86407 1.44238 8.00007 1.44238ZM3.89258 7.9996C3.89258 5.73027 5.73258 3.8916 8.00058 3.8916C10.2686 3.8916 12.1086 5.7316 12.1086 7.9996C12.1086 10.2689 10.2686 12.1076 8.00058 12.1076C5.73258 12.1076 3.89258 10.2689 3.89258 7.9996ZM8.00065 10.6663C6.52732 10.6663 5.33398 9.47301 5.33398 7.99967C5.33398 6.52767 6.52732 5.33301 8.00065 5.33301C9.47265 5.33301 10.6687 6.52634 10.6687 7.99967C10.6687 9.47301 9.47265 10.6663 8.00065 10.6663ZM11.3086 3.73051C11.3086 3.19984 11.7393 2.77051 12.2686 2.77051C12.8006 2.77051 13.2299 3.19984 13.2299 3.73051C13.2299 4.26117 12.7993 4.69051 12.2686 4.69051C11.7379 4.69051 11.3086 4.25984 11.3086 3.73051Z" fill="white"/>
</svg>
