<svg width="77" height="70" viewBox="0 0 77 70" fill="none" xmlns="http://www.w3.org/2000/svg">
<path d="M76.9823 68.6446L70.9329 34.7051C70.8726 34.3664 70.6663 34.0729 70.3706 33.9055L55.1446 25.2817C54.947 25.1696 54.7254 25.1251 54.5078 25.1422L57.2779 61.5316L57.1851 61.5738L75.4072 69.8985C75.5555 69.9661 75.7131 69.9995 75.87 69.9995C76.1183 69.9995 76.3643 69.9163 76.5666 69.755C76.8972 69.4922 77.057 69.0646 76.9823 68.6446Z" fill="#44C868"/>
<path d="M38.5003 33.5264L22.928 25.2669C22.7413 25.1678 22.5344 25.1274 22.3306 25.1413C22.3846 25.138 22.4389 25.1383 22.4927 25.1426L19.7227 61.5319L38.0376 69.899C38.1854 69.9664 38.3432 70 38.5003 70V33.5264Z" fill="#44C868"/>
<path d="M22.4926 25.1422C22.275 25.1251 22.0535 25.1696 21.8559 25.2816L6.62972 33.9054C6.33405 34.0728 6.12771 34.3661 6.06741 34.705L0.0181791 68.6444C-0.0567163 69.0643 0.103301 69.4919 0.433713 69.755C0.636291 69.9163 0.882183 69.9995 1.13033 69.9995C1.28719 69.9995 1.44495 69.9662 1.59309 69.8985L19.716 61.6192L22.4926 25.1422Z" fill="#4CE166"/>
<path d="M54.5076 25.1406C54.3578 25.1524 54.2097 25.193 54.0724 25.2659L38.5 33.5252V69.9988C38.5 69.9988 38.5 69.9988 38.5002 69.9988C38.6573 69.9988 38.8152 69.9654 38.9629 69.8979L57.2778 61.5307L54.5076 25.1406Z" fill="#4CE166"/>
<path d="M4.23471 44.9908L3.00586 51.8854L21.2024 42.0983L21.6249 36.5484L21.695 35.6279L4.23471 44.9908Z" fill="#FFDB56"/>
<path d="M21.3656 39.9453L21.2018 42.0974L3.00527 51.8845L0.0181791 68.644C-0.0567163 69.0639 0.103301 69.4915 0.433713 69.7546C0.636291 69.9159 0.882183 69.9991 1.13033 69.9991C1.28719 69.9991 1.44495 69.9658 1.59309 69.8981L19.716 61.6188L21.3656 39.9453Z" fill="#FF5161"/>
<path d="M38.5023 38.0747L21.6918 35.627L21.1992 42.0973L38.4978 68.8492V59.1215L28.1753 42.5695L38.5023 43.8273V38.0747Z" fill="#FFBB24"/>
<path d="M69.1684 33.2268L61.854 29.084L54.9297 30.7316L55.0163 31.8704L55.3583 36.3628L69.1684 33.2268Z" fill="#FFBB24"/>
<path d="M55.9753 44.4293L55.3196 35.8148L54.9326 30.7305L38.5039 38.0743V43.8268L49.2353 39.0746L55.9753 44.4293Z" fill="#FFDB56"/>
<path d="M76.9817 68.644L75.4623 60.1189L55.3613 36.3623L55.9755 44.4299L76.5898 69.7332C76.9032 69.4688 77.0547 69.0534 76.9817 68.644Z" fill="#FFBB24"/>
<path d="M38.5749 0C29.8577 0 22.7656 7.21606 22.7656 16.0858C22.7656 21.5725 25.3236 27.4632 30.3689 33.5941C34.0744 38.0971 37.7295 40.9933 37.8834 41.1144C38.087 41.2748 38.3309 41.3549 38.575 41.3549C38.8189 41.3549 39.063 41.2748 39.2667 41.1144C39.4204 40.9933 43.0756 38.0971 46.7812 33.5941C51.8264 27.4632 54.3844 21.5727 54.3844 16.0858C54.3841 7.21606 47.292 0 38.5749 0ZM44.4296 16.0857C44.4296 19.3756 41.8083 22.0428 38.5749 22.0428C35.3414 22.0428 32.7201 19.3758 32.7201 16.0857C32.7201 12.7956 35.3414 10.1285 38.5749 10.1285C41.8083 10.1285 44.4296 12.7957 44.4296 16.0857Z" fill="#F23849"/>
<path d="M38.5704 0C37.8795 0 37.199 0.0456383 36.5312 0.133546C44.2889 1.15459 50.3015 7.91901 50.3015 16.0858C50.3015 21.5725 47.7434 27.4632 42.6982 33.5941C40.3153 36.4898 37.9549 38.7195 36.5314 39.9756C37.3216 40.6728 37.8242 41.0713 37.8789 41.1144C38.0825 41.2748 38.3265 41.3549 38.5706 41.3549C38.8145 41.3549 39.0586 41.2748 39.2622 41.1144C39.4159 40.9933 43.0712 38.0971 46.7767 33.5941C51.8219 27.4632 54.38 21.5727 54.38 16.0858C54.3797 7.21606 47.2876 0 38.5704 0Z" fill="#E7343F"/>
<path d="M38.9629 69.8997L45.7734 66.7883L38.5 59.123V70.0006C38.5 70.0006 38.5 70.0006 38.5002 70.0006C38.6573 70.0006 38.8151 69.9674 38.9629 69.8997Z" fill="#FFDB56"/>
<path d="M70.9343 34.7051C70.874 34.3663 70.6677 34.0729 70.372 33.9055L69.1734 33.2266L55.3633 36.3626L75.4641 60.1192L70.9343 34.7051Z" fill="#FF5161"/>
<path d="M38.5005 69.9993C38.5006 69.9993 38.5006 69.9993 38.5005 69.9993V68.8495L21.2021 42.0977L19.7227 61.5315L38.0376 69.8986C38.1854 69.9661 38.3432 69.9993 38.5005 69.9993Z" fill="#FF6472"/>
</svg>
