<svg width="62" height="62" viewBox="0 0 62 62" fill="none" xmlns="http://www.w3.org/2000/svg">
<path d="M1.42644 5.14108C0.94857 6.07896 0.722174 7.13996 0.610654 8.5049C0.499998 9.85927 0.499999 11.5562 0.5 13.7767V13.8V48.2V48.2233C0.499999 50.4438 0.499998 52.1407 0.610654 53.4951C0.722174 54.86 0.94857 55.921 1.42644 56.8589C2.24137 58.4583 3.5417 59.7586 5.14108 60.5736C6.07896 61.0514 7.13996 61.2778 8.5049 61.3893C9.85927 61.5 11.5562 61.5 13.7767 61.5H13.8H48.2H48.2233C50.4438 61.5 52.1407 61.5 53.4951 61.3893C54.86 61.2778 55.921 61.0514 56.8589 60.5736C58.4583 59.7586 59.7586 58.4583 60.5736 56.8589C61.0514 55.921 61.2778 54.86 61.3893 53.4951C61.5 52.1407 61.5 50.4438 61.5 48.2233V48.2V33V32.9763C61.5 27.3958 61.5 23.1787 61.2259 19.8233C60.9508 16.4574 60.3975 13.9145 59.2656 11.6932C57.3002 7.83587 54.1641 4.69977 50.3068 2.73437C48.0855 1.60253 45.5426 1.04915 42.1767 0.774144C38.8213 0.499999 34.6042 0.499999 29.0237 0.5H29H13.8H13.7767C11.5562 0.499999 9.85927 0.499998 8.5049 0.610654C7.13996 0.722174 6.07896 0.94857 5.14108 1.42644C3.5417 2.24137 2.24137 3.5417 1.42644 5.14108Z" stroke="#F23849"/>
<path d="M31.0078 13.893L33.062 9.19984C33.1205 9.0673 33.216 8.9544 33.337 8.87464C33.458 8.79488 33.5993 8.75162 33.7442 8.75002H38.7897C38.9181 8.74912 39.0446 8.78123 39.1571 8.84328C39.2695 8.90532 39.3642 8.99521 39.4319 9.10434C39.4996 9.21346 39.5382 9.33815 39.5439 9.46646C39.5496 9.59477 39.5222 9.72239 39.4644 9.83708L35.476 17.8139L31.0078 18.4961V13.893Z" fill="#A54261"/>
<path d="M32.6916 17.7471H34.7533C35.7475 17.7471 36.7009 18.142 37.4039 18.845C38.1069 19.548 38.5018 20.5014 38.5018 21.4956V25.8813L35.503 24.4794V21.4956C35.503 21.2967 35.424 21.106 35.2834 20.9655C35.1428 20.8249 34.9521 20.7459 34.7533 20.7459H27.2563C27.0575 20.7459 26.8668 20.8249 26.7262 20.9655C26.5856 21.106 26.5066 21.2967 26.5066 21.4956V24.4794L23.5078 25.8813V21.4956C23.5087 20.6263 23.8111 19.7843 24.3634 19.113C24.9157 18.4417 25.6838 17.9828 26.5366 17.8145L32.6916 17.7471Z" fill="#E8C054"/>
<path d="M31.006 52.2327C38.8729 52.2327 45.2503 45.8554 45.2503 37.9884C45.2503 30.1215 38.8729 23.7441 31.006 23.7441C23.1391 23.7441 16.7617 30.1215 16.7617 37.9884C16.7617 45.8554 23.1391 52.2327 31.006 52.2327Z" fill="#F9D971"/>
<path d="M28.0085 20.7452L22.5537 9.83482C22.4966 9.72055 22.4696 9.59358 22.4754 9.46597C22.4811 9.33836 22.5194 9.21433 22.5865 9.10565C22.6537 8.99698 22.7475 8.90726 22.859 8.84502C22.9706 8.78278 23.0962 8.75007 23.2239 8.75H28.2679C28.4137 8.75008 28.5563 8.79267 28.6783 8.87256C28.8003 8.95246 28.8963 9.06618 28.9546 9.19982L34.0061 20.7452H28.0085Z" fill="#DD5673"/>
<path d="M25.0102 39.4871H22.0114C21.8126 39.4871 21.6219 39.4081 21.4813 39.2675C21.3407 39.1269 21.2617 38.9362 21.2617 38.7374V37.238C21.2617 37.0391 21.3407 36.8485 21.4813 36.7079C21.6219 36.5673 21.8126 36.4883 22.0114 36.4883H25.0102V39.4871Z" fill="white"/>
<path d="M37.0059 39.4871H40.0047C40.2035 39.4871 40.3942 39.4081 40.5348 39.2675C40.6754 39.1269 40.7544 38.9362 40.7544 38.7374V37.238C40.7544 37.0391 40.6754 36.8485 40.5348 36.7079C40.3942 36.5673 40.2035 36.4883 40.0047 36.4883H37.0059V39.4871Z" fill="white"/>
<path d="M27.2598 36.4883H34.7568V39.4871H27.2598V36.4883Z" fill="white"/>
<path d="M26.5069 33.4902H25.7572C24.9291 33.4902 24.2578 34.1615 24.2578 34.9896V40.9872C24.2578 41.8153 24.9291 42.4866 25.7572 42.4866H26.5069C27.335 42.4866 28.0063 41.8153 28.0063 40.9872V34.9896C28.0063 34.1615 27.335 33.4902 26.5069 33.4902Z" fill="#3F6582"/>
<path d="M35.5048 42.4863H36.2545C37.0826 42.4863 37.7539 41.815 37.7539 40.9869V34.9893C37.7539 34.1612 37.0826 33.4899 36.2545 33.4899H35.5048C34.6767 33.4899 34.0054 34.1612 34.0054 34.9893V40.9869C34.0054 41.815 34.6767 42.4863 35.5048 42.4863Z" fill="#3F6582"/>
<path d="M26.5094 32.7393H25.7597C25.1632 32.7393 24.5911 32.9762 24.1693 33.398C23.7475 33.8198 23.5106 34.3919 23.5106 34.9884V35.7381H22.0112C21.6135 35.7381 21.2321 35.896 20.9509 36.1772C20.6698 36.4584 20.5118 36.8398 20.5118 37.2375V38.7369C20.5118 39.1345 20.6698 39.5159 20.9509 39.7971C21.2321 40.0783 21.6135 40.2363 22.0112 40.2363H23.5106V40.986C23.5106 41.5825 23.7475 42.1545 24.1693 42.5763C24.5911 42.9981 25.1632 43.2351 25.7597 43.2351H26.5094C27.1059 43.2351 27.6779 42.9981 28.0997 42.5763C28.5215 42.1545 28.7585 41.5825 28.7585 40.986V40.2363H33.2567V40.986C33.2567 41.5825 33.4936 42.1545 33.9154 42.5763C34.3372 42.9981 34.9093 43.2351 35.5058 43.2351H36.2555C36.852 43.2351 37.424 42.9981 37.8458 42.5763C38.2676 42.1545 38.5046 41.5825 38.5046 40.986V40.2363H40.004C40.4016 40.2363 40.783 40.0783 41.0642 39.7971C41.3454 39.5159 41.5034 39.1345 41.5034 38.7369V37.2375C41.5034 36.8398 41.3454 36.4584 41.0642 36.1772C40.783 35.896 40.4016 35.7381 40.004 35.7381H38.5046V34.9884C38.5046 34.3919 38.2676 33.8198 37.8458 33.398C37.424 32.9762 36.852 32.7393 36.2555 32.7393H35.5058C34.9093 32.7393 34.3372 32.9762 33.9154 33.398C33.4936 33.8198 33.2567 34.3919 33.2567 34.9884V35.7381H28.7585V34.9884C28.7585 34.3919 28.5215 33.8198 28.0997 33.398C27.6779 32.9762 27.1059 32.7393 26.5094 32.7393ZM22.0112 38.7369V37.2375H23.5106V38.7369H22.0112ZM27.2591 40.986C27.2591 41.1848 27.1801 41.3755 27.0395 41.5161C26.8989 41.6567 26.7082 41.7357 26.5094 41.7357H25.7597C25.5608 41.7357 25.3702 41.6567 25.2296 41.5161C25.089 41.3755 25.01 41.1848 25.01 40.986V34.9884C25.01 34.7895 25.089 34.5988 25.2296 34.4582C25.3702 34.3176 25.5608 34.2387 25.7597 34.2387H26.5094C26.7082 34.2387 26.8989 34.3176 27.0395 34.4582C27.1801 34.5988 27.2591 34.7895 27.2591 34.9884V40.986ZM40.004 37.2375V38.7369H38.5046V37.2375H40.004ZM34.7561 34.9884C34.7561 34.7895 34.8351 34.5988 34.9757 34.4582C35.1163 34.3176 35.3069 34.2387 35.5058 34.2387H36.2555C36.4543 34.2387 36.645 34.3176 36.7856 34.4582C36.9262 34.5988 37.0052 34.7895 37.0052 34.9884V40.986C37.0052 41.1848 36.9262 41.3755 36.7856 41.5161C36.645 41.6567 36.4543 41.7357 36.2555 41.7357H35.5058C35.3069 41.7357 35.1163 41.6567 34.9757 41.5161C34.8351 41.3755 34.7561 41.1848 34.7561 40.986V34.9884ZM33.2567 37.2375V38.7369H28.7585V37.2375H33.2567Z" fill="#373737"/>
<path d="M19.4159 29.6716C19.2487 29.564 19.0456 29.5273 18.8513 29.5695C18.657 29.6116 18.4874 29.7293 18.3798 29.8965C16.7803 32.3863 15.953 35.2936 16.0021 38.2525C16.0511 41.2115 16.9743 44.0898 18.6554 46.5252C20.3365 48.9607 22.7005 50.8444 25.4498 51.9394C28.1991 53.0344 31.2109 53.2917 34.1061 52.6789C37.0013 52.0661 39.6505 50.6106 41.7204 48.4956C43.7902 46.3806 45.1882 43.7006 45.7385 40.7929C46.2887 37.8851 45.9665 34.8796 44.8125 32.1546C43.6584 29.4295 41.7241 27.1067 39.253 25.4785V21.4946C39.2519 20.6166 38.9943 19.758 38.5117 19.0245C38.0291 18.291 37.3427 17.7146 36.5368 17.366L40.1354 10.1689C40.2497 9.93987 40.3034 9.6854 40.2915 9.42972C40.2796 9.17405 40.2025 8.92567 40.0674 8.70824C39.9324 8.49082 39.7439 8.31159 39.52 8.18762C39.2961 8.06364 39.0441 7.99906 38.7882 8.00001H33.7427C33.4518 8.00103 33.1676 8.08663 32.9245 8.24636C32.6814 8.4061 32.4901 8.63308 32.3737 8.89965L31.0063 12.0222L29.6403 8.89965C29.5237 8.63238 29.3316 8.40492 29.0877 8.24513C28.8438 8.08535 28.5585 8.00016 28.2669 8.00001H23.2229C22.9667 7.99963 22.7148 8.06489 22.491 8.18956C22.2672 8.31423 22.0791 8.49416 21.9446 8.71218C21.8101 8.9302 21.7337 9.17904 21.7227 9.43497C21.7117 9.6909 21.7664 9.94538 21.8817 10.1741L25.4803 17.3758C24.675 17.7229 23.9886 18.2975 23.5053 19.0292C23.022 19.7609 22.7628 20.6177 22.7596 21.4946V25.4755C22.0454 25.9426 21.3721 26.4693 20.7467 27.0499C20.6748 27.1173 20.617 27.1983 20.5764 27.288C20.5359 27.3778 20.5134 27.4747 20.5103 27.5732C20.5072 27.6717 20.5236 27.7698 20.5584 27.862C20.5932 27.9541 20.6458 28.0385 20.7133 28.1103C20.8495 28.2554 21.0377 28.3404 21.2366 28.3466C21.3351 28.3497 21.4332 28.3334 21.5254 28.2986C21.6175 28.2638 21.7019 28.2111 21.7737 28.1437C24.2759 25.8 27.5775 24.4985 31.0058 24.5043C34.4342 24.5101 37.7313 25.8228 40.2255 28.1749C42.7197 30.5271 44.2233 33.7417 44.4299 37.1638C44.6365 40.586 43.5306 43.9581 41.3375 46.5932C39.1443 49.2284 36.0291 50.9282 32.6263 51.3464C29.2236 51.7646 25.7894 50.8697 23.0234 48.8441C20.2575 46.8184 18.368 43.8144 17.7397 40.4441C17.1115 37.0738 17.7919 33.5908 19.6423 30.7047C19.7488 30.5375 19.7848 30.335 19.7423 30.1414C19.6999 29.9478 19.5826 29.7789 19.4159 29.6716ZM37.7536 21.4946V24.6164C37.2662 24.3703 36.7657 24.1513 36.2542 23.9604V21.4946C36.2542 21.0969 36.0962 20.7156 35.815 20.4344C35.5338 20.1532 35.1525 19.9952 34.7548 19.9952H34.4954L33.8394 18.4958H34.7548C35.5501 18.4958 36.3129 18.8118 36.8753 19.3741C37.4377 19.9365 37.7536 20.6993 37.7536 21.4946ZM33.7427 9.49941H38.7927L35.0374 17.0107C34.9437 17.0047 34.85 16.9964 34.7548 16.9964H33.1804L31.825 13.8919L33.7427 9.49941ZM28.2699 9.49941L32.8618 19.9952H28.4708L23.2229 9.49941H28.2699ZM24.259 21.4946C24.2601 20.8944 24.4408 20.3082 24.7779 19.8116C25.115 19.3149 25.593 18.9306 26.1505 18.708L26.829 20.0649C26.5208 20.1569 26.2503 20.3455 26.0576 20.603C25.8648 20.8604 25.7599 21.173 25.7584 21.4946V23.9491C25.2473 24.1375 24.7467 24.3535 24.259 24.5961V21.4946ZM27.2578 23.4813V21.4946H34.7548V23.4873C32.2991 22.8316 29.7146 22.8295 27.2578 23.4813Z" fill="#373737"/>
</svg>
