<svg width="60" height="60" viewBox="0 0 60 60" fill="none" xmlns="http://www.w3.org/2000/svg">
<path d="M48.2228 32.8382C47.9046 32.5201 47.7081 32.0808 47.7078 31.5954L47.7077 30.9538C47.7077 29.4767 48.2829 28.0881 49.3273 27.0437C50.3715 25.9995 51.7601 25.4243 53.237 25.4244L53.8783 25.4243C54.3446 25.4243 54.7917 25.6095 55.1214 25.9391C55.451 26.2688 55.6363 26.7158 55.6363 27.1821V27.8239C55.6364 29.3008 55.0613 30.6894 54.0169 31.7337C52.9726 32.778 51.5841 33.3532 50.1071 33.353H49.4658C48.9803 33.3532 48.5408 33.1564 48.2228 32.8382Z" fill="#F23849"/>
<path d="M55.7008 34.9296C54.1123 36.1854 52.1626 36.8689 50.1068 36.8689H49.4648C48.0561 36.8689 46.7319 36.3204 45.736 35.3244C44.7403 34.3288 44.1917 33.0048 44.1914 31.5965L44.1912 30.9546C44.1912 30.4632 44.2321 29.9783 44.3084 29.5024C43.7053 28.8747 42.9804 28.3551 42.1588 27.9854C41.2729 27.5869 40.2327 27.9817 39.8345 28.867C39.4362 29.7523 39.8309 30.793 40.7161 31.1913C41.7787 31.6694 42.5144 32.6534 42.6924 33.7824C39.7945 32.7328 36.6721 32.9402 34.1135 34.4008C30.5634 36.4275 28.5782 40.3484 29.0558 44.3896C29.0628 44.4486 29.0728 44.5073 29.0857 44.5652C30.2526 49.8073 32.9859 54.47 36.9901 58.0487L37.7561 58.7332C38.6987 59.5757 39.8794 60.0003 41.0629 60.0003C42.1563 60.0003 43.2519 59.6379 44.1641 58.9083L44.4922 58.6458L44.8302 58.9151C46.7285 60.4269 49.4199 60.3508 51.2297 58.7333L51.9956 58.0488C55.9998 54.47 58.7331 49.8076 59.9001 44.5653C59.913 44.5073 59.9229 44.4486 59.93 44.3896C60.3692 40.6729 58.7267 37.0632 55.7008 34.9296Z" fill="#F23849"/>
<path d="M31.0546 12.8907H9.9607C9.4091 12.8907 8.88948 12.6318 8.55725 12.1914C8.22514 11.7511 8.11897 11.1802 8.27049 10.65C9.07405 7.83779 11.2888 5.70039 14.0623 4.96796V1.75782C14.0623 0.787036 14.8493 0 15.8201 0H25.1952C26.166 0 26.953 0.787036 26.953 1.75782V4.96796C29.7264 5.70039 31.9412 7.83779 32.7448 10.65C32.8963 11.1802 32.7901 11.7511 32.458 12.1914C32.1258 12.6318 31.6062 12.8907 31.0546 12.8907Z" fill="#F23849"/>
<path d="M39.2578 8.19897H35.588C35.7989 8.67839 35.9794 9.17398 36.1251 9.68422C36.577 11.2661 36.2554 12.9949 35.2648 14.3085C34.2736 15.6224 32.6998 16.4065 31.0546 16.4065H9.96068C8.31548 16.4065 6.74164 15.6224 5.75069 14.3091C4.75975 12.9949 4.43819 11.2661 4.89006 9.68422C5.03585 9.1741 5.21632 8.67839 5.42725 8.19897H1.7575C0.786716 8.19897 -0.000320435 8.98601 -0.000320435 9.9568V58.2384C-0.000320435 59.2092 0.786716 59.9962 1.7575 59.9962H33.9197C29.7603 56.0205 26.9099 50.9704 25.6542 45.3295C25.616 45.1581 25.5856 44.9804 25.5647 44.8036C24.9211 39.357 27.5927 34.0758 32.3707 31.3481C33.5496 30.6751 34.8341 30.1915 36.172 29.9074C36.1199 29.0648 36.2723 28.2166 36.6285 27.4249C37.4201 25.6652 39.1128 24.4858 41.0156 24.3325V9.9568C41.0156 8.98601 40.2285 8.19897 39.2578 8.19897ZM22.8514 50.3868H8.7888C7.81801 50.3868 7.03098 49.5997 7.03098 48.6289C7.03098 47.6581 7.81801 46.8711 8.7888 46.8711H22.8514C23.8222 46.8711 24.6092 47.6581 24.6092 48.6289C24.6092 49.5997 23.8222 50.3868 22.8514 50.3868ZM22.8514 43.3555H8.7888C7.81801 43.3555 7.03098 42.5684 7.03098 41.5976C7.03098 40.6268 7.81801 39.8398 8.7888 39.8398H22.8514C23.8222 39.8398 24.6092 40.6268 24.6092 41.5976C24.6092 42.5684 23.8222 43.3555 22.8514 43.3555ZM22.8514 36.3242H8.7888C7.81801 36.3242 7.03098 35.5371 7.03098 34.5663C7.03098 33.5956 7.81801 32.8085 8.7888 32.8085H22.8514C23.8222 32.8085 24.6092 33.5956 24.6092 34.5663C24.6092 35.5371 23.8222 36.3242 22.8514 36.3242ZM22.8514 29.2929H8.7888C7.81801 29.2929 7.03098 28.5058 7.03098 27.535C7.03098 26.5643 7.81801 25.7772 8.7888 25.7772H22.8514C23.8222 25.7772 24.6092 26.5643 24.6092 27.535C24.6092 28.5058 23.8222 29.2929 22.8514 29.2929ZM22.8514 22.2616H8.7888C7.81801 22.2616 7.03098 21.4745 7.03098 20.5037C7.03098 19.533 7.81801 18.7459 8.7888 18.7459H22.8514C23.8222 18.7459 24.6092 19.533 24.6092 20.5037C24.6092 21.4745 23.8222 22.2616 22.8514 22.2616ZM32.2265 29.2929H29.8827C28.9119 29.2929 28.1249 28.5058 28.1249 27.535C28.1249 26.5643 28.9119 25.7772 29.8827 25.7772H32.2265C33.1972 25.7772 33.9843 26.5643 33.9843 27.535C33.9843 28.5058 33.1972 29.2929 32.2265 29.2929ZM32.2265 22.2616H29.8827C28.9119 22.2616 28.1249 21.4745 28.1249 20.5037C28.1249 19.533 28.9119 18.7459 29.8827 18.7459H32.2265C33.1972 18.7459 33.9843 19.533 33.9843 20.5037C33.9843 21.4745 33.1972 22.2616 32.2265 22.2616Z" fill="#F23849"/>
</svg>
