<svg width="90" height="90" viewBox="0 0 90 90" fill="none" xmlns="http://www.w3.org/2000/svg">
<path d="M0 8C0 3.58172 3.58172 0 8 0H70C81.0457 0 90 8.95431 90 20V82C90 86.4183 86.4183 90 82 90H8C3.58172 90 0 86.4183 0 82V8Z" fill="#161617"/>
<path d="M60.161 15C55.7359 15 51.4859 16.6638 48.1932 19.6851C48.1287 19.744 48.0355 19.744 47.971 19.6851C44.6784 16.6638 40.4284 15 36.0038 15C26.1124 15 18.066 23.2384 18.066 33.3647C18.066 35.6894 18.8641 38.3355 20.4357 41.2453C18.2989 41.6804 16.3091 42.6997 14.7047 44.2093C11.1325 47.5696 10.0134 52.8629 11.9193 57.3816L12.7937 59.4549C14.5071 63.517 16.6853 67.2781 19.2685 70.6328C19.4359 70.8503 19.6048 71.0669 19.7763 71.2824L20.5222 72.2218C21.9239 73.9874 24.0212 75 26.2757 75C28.1632 75 30.0036 74.2567 31.3632 72.9533C32.7229 74.2572 34.5633 75 36.4507 75C38.7052 75 40.8021 73.9874 42.2042 72.2218L42.9501 71.2824C43.1211 71.0674 43.29 70.8509 43.4579 70.6328C44.2954 69.5455 45.0894 68.4141 45.8394 67.2449C46.5464 67.5894 47.3137 67.7619 48.0821 67.7619C49.1899 67.7619 50.2982 67.4036 51.2233 66.6859C54.6731 64.01 61.3261 58.6087 67.1216 52.4984C74.4052 44.8195 78.0983 38.3821 78.0983 33.3647C78.0988 23.2384 70.0518 15 60.161 15ZM41.3811 69.0335C41.2213 69.2409 41.0606 69.4472 40.8973 69.6524L40.1514 70.5918C39.2499 71.7273 37.901 72.379 36.4507 72.379C35.1858 72.379 33.953 71.8599 33.0695 70.9543C32.6169 70.491 32.0113 70.236 31.3637 70.236H31.3632C30.7156 70.236 30.11 70.491 29.657 70.9543C28.7734 71.8599 27.5407 72.379 26.2757 72.379C24.826 72.379 23.477 71.7273 22.575 70.5918L21.8292 69.6524C21.6664 69.4477 21.5051 69.2414 21.3459 69.0335C18.8994 65.857 16.8348 62.2915 15.209 58.4362L14.3346 56.3629C12.8521 52.8486 13.7228 48.7322 16.5005 46.1188C19.8245 42.992 24.8449 42.7642 28.4381 45.5777L30.0527 46.8416V47.8373C30.0527 52.9008 34.1721 57.0202 39.2356 57.0202H40.9915C41.7153 57.0202 42.302 56.433 42.302 55.7092V53.9533C42.302 49.5799 39.2274 45.9125 35.1264 44.9941C38.6315 42.8174 43.1528 43.2285 46.2259 46.1188C49.0036 48.7322 49.8744 52.8486 48.3918 56.3629L47.5175 58.4362C45.8916 62.291 43.827 65.8565 41.3811 69.0335ZM32.6743 47.392H33.1191C36.7374 47.392 39.681 50.335 39.681 53.9533V54.3987H39.2356C35.6178 54.3987 32.6743 51.4551 32.6743 47.8368V47.392ZM65.2203 50.6944C59.5441 56.6788 53.0079 61.9843 49.6169 64.6146C48.9176 65.1572 48.0043 65.2781 47.2083 64.9806C48.2147 63.2125 49.1259 61.3675 49.9327 59.4549L50.8071 57.3816C52.713 52.8629 51.5939 47.5696 48.0222 44.2093C45.9704 42.2794 43.2905 41.146 40.4765 41.018C37.6609 40.8921 34.8909 41.7767 32.6722 43.5131L32.4941 43.6529C32.1516 41.9712 31.3253 40.4252 30.0839 39.1838L28.6874 37.7873C28.1755 37.2758 27.3462 37.2758 26.8337 37.7873C26.3223 38.2992 26.3223 39.129 26.8337 39.6409L28.2302 41.0375C28.8563 41.6641 29.3309 42.4007 29.6396 43.2034C27.7854 41.8791 25.5867 41.1214 23.3194 41.0185C21.5742 38.0806 20.6871 35.5066 20.6871 33.3647C20.6871 24.6835 27.5581 17.621 36.0038 17.621C39.77 17.621 43.3909 19.0401 46.1988 21.6166C47.2723 22.6016 48.892 22.6021 49.9655 21.6166C52.7734 19.0401 56.3942 17.621 60.161 17.621C68.6062 17.621 75.4772 24.6835 75.4772 33.3647C75.4772 37.6275 71.9306 43.6201 65.2203 50.6944Z" fill="#26FAA1"/>
<path d="M69.681 33.4053H61.2972C60.753 33.4053 60.2652 33.7416 60.0722 34.25L57.103 42.0543L52.2741 26.4037C52.1133 25.8841 51.6485 25.5171 51.1053 25.4823C50.5622 25.4469 50.0544 25.752 49.8286 26.2471L46.5676 33.4053H38.5156C37.7923 33.4053 37.2051 33.9925 37.2051 34.7158C37.2051 35.4397 37.7923 36.0269 38.5156 36.0269H47.4108C47.9242 36.0269 48.3906 35.7269 48.6036 35.2595L50.7854 30.4704L55.7214 46.467C55.8862 47.002 56.3725 47.3726 56.9315 47.3911C56.9459 47.3911 56.9602 47.3916 56.974 47.3916C57.5167 47.3916 58.005 47.0563 58.1991 46.5469L62.2008 36.0269H69.681C70.4049 36.0269 70.9915 35.4397 70.9915 34.7163C70.9915 33.9925 70.4049 33.4053 69.681 33.4053Z" fill="#26FAA1"/>
<path d="M32.4438 33.4053C32.0978 33.4053 31.7609 33.5455 31.5173 33.7892C31.2721 34.0329 31.1328 34.3713 31.1328 34.7158C31.1328 35.0608 31.2721 35.3987 31.5173 35.6424C31.7609 35.8861 32.0988 36.0268 32.4438 36.0268C32.7884 36.0268 33.1268 35.8866 33.3704 35.6424C33.6141 35.3987 33.7544 35.0608 33.7544 34.7158C33.7544 34.3713 33.6141 34.0329 33.3704 33.7892C33.1268 33.5455 32.7884 33.4053 32.4438 33.4053Z" fill="#26FAA1"/>
</svg>
