<svg width="90" height="90" viewBox="0 0 90 90" fill="none" xmlns="http://www.w3.org/2000/svg">
<path d="M0 8C0 3.58172 3.58172 0 8 0H70C81.0457 0 90 8.95431 90 20V82C90 86.4183 86.4183 90 82 90H8C3.58172 90 0 86.4183 0 82V8Z" fill="#161617"/>
<path d="M33.998 61H29.998C28.3446 61.0082 27.0062 62.3465 26.998 64C26.998 65.6568 28.3412 67 29.998 67H33.998V71C33.998 73.748 39.698 75 44.998 75C50.298 75 55.998 73.748 55.998 71V67H59.998C61.6515 66.9918 62.9898 65.6534 62.998 64C62.998 62.3431 61.6549 61 59.998 61H55.998V60C55.9962 59.6192 55.9212 59.2424 55.777 58.89C55.9203 58.6151 55.996 58.31 55.998 58V54H59.998C61.6515 53.9918 62.9898 52.6534 62.998 51C62.998 49.3431 61.6549 48 59.998 48H55.998V47C55.9962 46.6192 55.9212 46.2424 55.777 45.89C55.9203 45.6151 55.996 45.31 55.998 45V41H59.998C61.6515 40.9918 62.9898 39.6534 62.998 38C62.998 36.3431 61.6549 35 59.998 35H55.998V34C55.9962 33.6192 55.9212 33.2424 55.777 32.89C55.9203 32.6151 55.996 32.31 55.998 32V28H59.998C61.6515 27.9918 62.9898 26.6534 62.998 25C62.998 23.3431 61.6549 22 59.998 22H55.998V19C55.998 16.252 50.298 15 44.998 15C39.698 15 33.998 16.252 33.998 19V22H29.998C28.3446 22.0082 27.0062 23.3466 26.998 25C26.998 26.6569 28.3412 28 29.998 28H33.998V32C34.0002 32.3105 34.0755 32.6161 34.218 32.892C34.0747 33.2439 34 33.62 33.998 34V35H29.998C28.3446 35.0082 27.0062 36.3466 26.998 38C26.998 39.6568 28.3412 41 29.998 41H33.998V45C34.0002 45.3105 34.0755 45.6161 34.218 45.892C34.0747 46.2439 34 46.62 33.998 47V48H29.998C28.3446 48.0082 27.0062 49.3465 26.998 51C26.998 52.6568 28.3412 54 29.998 54H33.998V58C34.0002 58.3105 34.0755 58.6161 34.218 58.892C34.0747 59.2439 34 59.62 33.998 60V61ZM44.998 17C50.798 17 53.798 18.434 53.998 19C53.798 19.566 50.798 21 44.998 21C39.157 21 36.159 19.544 35.998 19.018V19.012C36.159 18.455 39.157 17 44.998 17ZM29.998 52C29.4457 52 28.998 51.5523 28.998 51C28.9971 50.7305 29.1079 50.4728 29.304 50.288C29.4864 50.1014 29.7371 49.9974 29.998 50H33.998C35.1026 50 35.998 49.1046 35.998 48V47.437C38.1957 48.3714 40.5506 48.8803 42.938 48.937H42.999C43.3563 48.9475 43.692 48.7667 43.8798 48.4625C44.0676 48.1584 44.0788 47.7772 43.9093 47.4625C43.7398 47.1479 43.4153 46.9475 43.058 46.937C39.235 46.708 36.781 45.837 36.095 45.107C36.06 45.0739 36.0275 45.0381 35.998 45V41C35.998 39.8954 35.1026 39 33.998 39H29.998C29.4457 39 28.998 38.5523 28.998 38C28.9971 37.7306 29.1079 37.4728 29.304 37.288C29.4864 37.1014 29.7371 36.9974 29.998 37H33.998C35.1026 37 35.998 36.1046 35.998 35V34.437C38.1957 35.3714 40.5506 35.8804 42.938 35.937H42.999C43.3563 35.9475 43.692 35.7667 43.8798 35.4625C44.0676 35.1584 44.0788 34.7772 43.9093 34.4625C43.7398 34.1479 43.4153 33.9475 43.058 33.937C39.235 33.708 36.781 32.837 36.095 32.107C36.06 32.0739 36.0275 32.0381 35.998 32V28C35.998 26.8954 35.1026 26 33.998 26H29.998C29.4457 26 28.998 25.5523 28.998 25C28.9971 24.7306 29.1079 24.4728 29.304 24.288C29.4864 24.1014 29.7371 23.9974 29.998 24H33.998C35.1026 24 35.998 23.1046 35.998 22V21.428C38.126 22.5 41.641 23 44.998 23C48.355 23 51.87 22.5 53.998 21.428V22C53.998 23.1046 54.8934 24 55.998 24H59.998C60.5503 24 60.998 24.4477 60.998 25C60.9989 25.2694 60.8881 25.5272 60.692 25.712C60.5096 25.8986 60.2589 26.0026 59.998 26H55.998C54.8934 26 53.998 26.8954 53.998 28V31.986C53.9665 32.0434 53.9248 32.0945 53.875 32.137C53.213 32.846 50.759 33.713 46.936 33.937C46.3837 33.9533 45.9492 34.4142 45.9655 34.9665C45.9818 35.5188 46.4427 35.9533 46.995 35.937H47.056C49.4433 35.8797 51.7985 35.3728 53.998 34.443V35C53.998 36.1046 54.8934 37 55.998 37H59.998C60.5503 37 60.998 37.4477 60.998 38C60.9989 38.2694 60.8881 38.5272 60.692 38.712C60.5096 38.8986 60.2589 39.0026 59.998 39H55.998C54.8934 39 53.998 39.8954 53.998 41V44.986C53.9665 45.0434 53.9248 45.0945 53.875 45.137C53.213 45.846 50.759 46.713 46.936 46.937C46.3837 46.9533 45.9492 47.4142 45.9655 47.9665C45.9818 48.5188 46.4427 48.9533 46.995 48.937H47.056C49.4431 48.8775 51.7975 48.3686 53.996 47.437V48C53.996 49.1046 54.8915 50 55.996 50H59.996C60.5483 50 60.996 50.4477 60.996 51C60.9969 51.2694 60.8861 51.5272 60.69 51.712C60.5081 51.8981 60.2583 52.0021 59.998 52H55.998C54.8934 52 53.998 52.8954 53.998 54V57.986C53.9665 58.0434 53.9248 58.0945 53.875 58.137C53.213 58.846 50.759 59.713 46.936 59.937C46.3837 59.9533 45.9492 60.4142 45.9655 60.9665C45.9818 61.5188 46.4427 61.9533 46.995 61.937H47.056C49.4431 61.8775 51.7975 61.3686 53.996 60.437V61C53.996 62.1046 54.8915 63 55.996 63H59.996C60.5483 63 60.996 63.4477 60.996 64C60.9969 64.2694 60.8861 64.5272 60.69 64.712C60.5081 64.8981 60.2583 65.0021 59.998 65H55.998C54.8934 65 53.998 65.8954 53.998 67V70.985C53.848 71.541 50.852 73 44.998 73C39.144 73 36.147 71.541 35.998 71V67C35.998 65.8954 35.1026 65 33.998 65H29.998C29.4457 65 28.998 64.5523 28.998 64C28.9971 63.7305 29.1079 63.4728 29.304 63.288C29.4864 63.1014 29.7371 62.9974 29.998 63H33.998C35.1026 63 35.998 62.1046 35.998 61V60.437C38.1957 61.3713 40.5506 61.8803 42.938 61.937H42.999C43.5513 61.9533 44.0122 61.5188 44.0285 60.9665C44.0448 60.4142 43.6103 59.9533 43.058 59.937C39.235 59.708 36.781 58.837 36.095 58.107C36.06 58.0739 36.0275 58.0381 35.998 58V54C35.998 52.8954 35.1026 52 33.998 52H29.998Z" fill="#FFB800"/>
<path d="M72.9973 37H67.4553C66.6216 37.0025 65.8762 37.5199 65.5823 38.3L63.2333 44.564C63.0241 45.1178 63.1006 45.7391 63.438 46.2256C63.7753 46.7121 64.3303 47.0017 64.9223 47H67.4813L65.7913 53.757C65.6748 54.2216 65.9041 54.7035 66.3381 54.9063C66.772 55.109 67.2888 54.9755 67.5703 54.588L74.6413 44.866C75.0085 44.3655 75.0919 43.7111 74.8619 43.1345C74.632 42.5579 74.1212 42.1405 73.5103 42.03L74.7103 40.03C75.0814 39.4124 75.0916 38.6429 74.737 38.0157C74.3824 37.3885 73.7178 37.0005 72.9973 37ZM71.6133 43.084C71.8713 43.5386 72.3132 43.8594 72.8253 43.964L68.9803 49.25L69.4803 47.242C69.6168 46.703 69.4966 46.1312 69.1547 45.6928C68.8127 45.2545 68.2873 44.9987 67.7313 45H65.2053L67.4553 39H72.9973L71.6363 41.267C71.302 41.8242 71.2928 42.5181 71.6123 43.084H71.6133Z" fill="#FFB800"/>
<path d="M16.485 42.03C15.8742 42.1405 15.3633 42.5579 15.1334 43.1345C14.9034 43.7111 14.9868 44.3655 15.354 44.866L22.425 54.588C22.7065 54.9755 23.2233 55.109 23.6573 54.9063C24.0912 54.7035 24.3205 54.2216 24.204 53.757L22.514 47H25.073C25.6655 47.0019 26.2211 46.7121 26.5585 46.2251C26.8959 45.738 26.972 45.1161 26.762 44.562L24.413 38.3C24.1191 37.5199 23.3737 37.0025 22.54 37H16.998C16.2778 37.0007 15.6136 37.3886 15.2591 38.0155C14.9046 38.6424 14.9145 39.4114 15.285 40.029L16.485 42.03ZM22.54 39L24.79 45H22.264C21.7077 44.9981 21.1817 45.2536 20.8393 45.692C20.4968 46.1305 20.3764 46.7027 20.513 47.242L21.013 49.25L17.171 43.964C17.7475 43.8499 18.232 43.4615 18.4688 42.9237C18.7057 42.3859 18.665 41.7663 18.36 41.264L16.998 39H22.54Z" fill="#FFB800"/>
</svg>
