<svg width="22" height="27" viewBox="0 0 22 27" fill="none" xmlns="http://www.w3.org/2000/svg">
<path d="M21 11.2273C21 19.1818 11 26 11 26C11 26 1 19.1818 1 11.2273C1 8.51483 2.05357 5.91348 3.92893 3.9955C5.8043 2.07751 8.34784 1 11 1C13.6522 1 16.1957 2.07751 18.0711 3.9955C19.9464 5.91348 21 8.51483 21 11.2273Z" stroke="white" stroke-width="2" stroke-linecap="round" stroke-linejoin="round"/>
<path d="M10.9993 14.6365C12.8403 14.6365 14.3327 13.1102 14.3327 11.2275C14.3327 9.34466 12.8403 7.81836 10.9993 7.81836C9.1584 7.81836 7.66602 9.34466 7.66602 11.2275C7.66602 13.1102 9.1584 14.6365 10.9993 14.6365Z" stroke="white" stroke-width="2" stroke-linecap="round" stroke-linejoin="round"/>
</svg>
