<svg width="90" height="90" viewBox="0 0 90 90" fill="none" xmlns="http://www.w3.org/2000/svg">
<path d="M0 8C0 3.58172 3.58172 0 8 0H70C81.0457 0 90 8.95431 90 20V82C90 86.4183 86.4183 90 82 90H8C3.58172 90 0 86.4183 0 82V8Z" fill="#161617"/>
<path d="M74.9261 45.7066C74.8202 45.0681 74.2166 44.6365 73.5784 44.7422L71.4147 45.1006L71.2147 44.3675C71.0567 43.7879 70.4857 43.4219 69.8931 43.5197L67.0573 43.9881C66.4187 44.0935 65.9865 44.6967 66.0921 45.3352C66.1976 45.9737 66.8002 46.4056 67.4393 46.3004L69.2317 46.0044L69.4317 46.7381C69.5726 47.2547 70.0415 47.6018 70.5614 47.6018C70.6249 47.6018 70.6894 47.5966 70.754 47.5858L73.9616 47.0544C74.5999 46.9486 75.0318 46.3452 74.9261 45.7066Z" fill="#F23849"/>
<path d="M72.3396 55.1588L70.1808 54.3454L70.3278 53.5087C70.4255 52.9536 70.1142 52.4076 69.5867 52.209L66.8705 51.1859C66.2646 50.9577 65.5888 51.2639 65.3607 51.8696C65.1327 52.4752 65.4387 53.1512 66.0443 53.3793L67.8511 54.06L67.704 54.8966C67.6064 55.4516 67.9176 55.9975 68.445 56.1962L71.5132 57.3521C71.6492 57.4034 71.7888 57.4278 71.9262 57.4278C72.3999 57.4278 72.8461 57.1382 73.0229 56.6687C73.2513 56.0629 72.9453 55.387 72.3396 55.1588Z" fill="#F23849"/>
<path d="M66.4569 38.3709C66.7634 38.3709 67.0695 38.2513 67.2993 38.0138L68.6126 36.6561L69.0787 37.0641C69.5487 37.4757 70.2589 37.446 70.6932 36.9971L73.0507 34.5589C73.5006 34.0936 73.4881 33.3517 73.0228 32.9018C72.5576 32.4517 71.8158 32.4643 71.3658 32.9296L69.7835 34.5659L69.3177 34.1581C68.8477 33.7467 68.1376 33.7761 67.7035 34.2249L65.6148 36.3841C65.1648 36.8493 65.1771 37.5912 65.6424 38.0412C65.8698 38.2613 66.1635 38.3709 66.4569 38.3709Z" fill="#F23849"/>
<path d="M19.4359 47.6019C19.9559 47.6019 20.4247 47.2548 20.5656 46.7382L20.7656 46.0042L22.5615 46.3005C23.2007 46.4069 23.8032 45.9737 23.9086 45.3351C24.0139 44.6965 23.5816 44.0934 22.9431 43.9881L20.104 43.5197C19.5113 43.4217 18.9407 43.7881 18.7826 44.3676L18.5828 45.1006L16.4224 44.7423C15.784 44.6363 15.1805 45.068 15.0747 45.7066C14.9687 46.345 15.4006 46.9485 16.039 47.0544L19.2434 47.5858C19.3078 47.5967 19.3723 47.6019 19.4359 47.6019Z" fill="#F23849"/>
<path d="M23.1248 51.187L20.4119 52.21C19.8855 52.4084 19.5744 52.9531 19.6709 53.5074L19.8168 54.3459L17.6591 55.1597C17.0536 55.3881 16.7478 56.0641 16.9762 56.6697C17.1532 57.1391 17.5991 57.4284 18.0728 57.4284C18.2103 57.4284 18.3501 57.404 18.4861 57.3527L21.551 56.1968C22.0775 55.9982 22.3885 55.4537 22.292 54.8994L22.1461 54.061L23.9519 53.3799C24.5574 53.1516 24.8632 52.4755 24.6348 51.87C24.4063 51.2643 23.7304 50.9587 23.1248 51.187Z" fill="#F23849"/>
<path d="M22.2921 34.225C21.8575 33.7758 21.1465 33.7466 20.6767 34.1591L20.2137 34.5655L18.6291 32.9291C18.1789 32.4639 17.4369 32.4521 16.9719 32.9024C16.5071 33.3526 16.4951 34.0944 16.9452 34.5594L19.3061 36.9976C19.7407 37.4466 20.4514 37.4755 20.921 37.0631L21.3836 36.6571L22.696 38.0138C22.9259 38.2513 23.2319 38.3708 23.5383 38.3708C23.8316 38.3708 24.1254 38.2613 24.353 38.0412C24.8182 37.5912 24.8305 36.8493 24.3805 36.384L22.2921 34.225Z" fill="#F23849"/>
<path d="M54.3848 35.0303C53.7376 35.0303 53.213 35.555 53.213 36.2021C53.213 36.8493 53.7376 37.374 54.3848 37.374H54.3881C55.0354 37.374 55.5584 36.8493 55.5584 36.2021C55.5584 35.555 55.0321 35.0303 54.3848 35.0303Z" fill="#F23849"/>
<path d="M61.417 36.2023C61.417 32.3215 58.2622 29.1641 54.3844 29.1641H51.264C51.5187 28.6301 51.6613 28.0329 51.6613 27.4029V19.105C51.6612 16.8415 49.8202 15 47.5572 15C45.2941 15 43.4531 16.8415 43.4531 19.105V23.3012H35.6162C31.7366 23.3012 28.5802 26.4571 28.5802 30.336C28.5802 32.7816 29.8338 34.94 31.732 36.202C29.8339 37.4633 28.5802 39.6207 28.5802 42.0652C28.5802 44.5111 29.8339 46.6697 31.7324 47.9316C29.8339 49.1934 28.5802 51.3519 28.5802 53.7979C28.5802 57.6769 31.7365 60.8326 35.6162 60.8326H37.9862C37.7316 61.3666 37.5889 61.9638 37.5889 62.5938V70.895C37.5889 73.1585 39.43 75 41.693 75C43.9559 75 45.7969 73.1585 45.7969 70.895V66.6988H54.3843C58.2621 66.6988 61.4169 63.5415 61.4169 59.6606C61.4169 57.2162 60.1638 55.0587 58.2666 53.7975C60.1637 52.5355 61.4169 50.377 61.4169 47.9314C61.4169 45.4857 60.1638 43.3273 58.2666 42.0654C60.1638 40.8041 61.417 38.6467 61.417 36.2023ZM54.3844 40.8933H35.6163C34.9691 40.8933 34.4445 41.418 34.4445 42.0652C34.4445 42.7123 34.9691 43.237 35.6163 43.237H54.3843C56.9698 43.237 59.0732 45.343 59.0732 47.9316C59.0732 50.52 56.9698 52.626 54.3843 52.626H35.6163C34.9691 52.626 34.4445 53.1507 34.4445 53.7979C34.4445 54.445 34.9691 54.9697 35.6163 54.9697H54.3843C56.9698 54.9697 59.0732 57.0741 59.0732 59.6607C59.0732 62.2493 56.9698 64.3552 54.3843 64.3552H44.625C43.9778 64.3552 43.4531 64.8799 43.4531 65.527V70.8952C43.4531 71.8663 42.6635 72.6564 41.693 72.6564C40.7224 72.6564 39.9327 71.8663 39.9327 70.8952V62.5939C39.9327 61.6228 40.7223 60.8327 41.693 60.8327H54.3843C55.0315 60.8327 55.5561 60.308 55.5561 59.6609C55.5561 59.0137 55.0315 58.489 54.3843 58.489H35.6163C33.0289 58.489 30.924 56.3846 30.924 53.798C30.924 51.2094 33.0289 49.1036 35.6163 49.1036H54.3843C55.0315 49.1036 55.5561 48.5788 55.5561 47.9317C55.5561 47.2846 55.0315 46.7598 54.3843 46.7598H35.6163C33.0289 46.7598 30.924 44.6538 30.924 42.0653C30.924 39.4786 33.0289 37.3743 35.6163 37.3743H49.1211C49.7684 37.3743 50.293 36.8495 50.293 36.2024C50.293 35.5553 49.7684 35.0305 49.1211 35.0305H35.6163C33.0289 35.0305 30.924 32.9245 30.924 30.3361C30.924 27.7495 33.0289 25.6451 35.6163 25.6451H44.6251C45.2723 25.6451 45.797 25.1203 45.797 24.4732V19.105C45.797 18.1338 46.5866 17.3438 47.5573 17.3438C48.5279 17.3438 49.3175 18.1338 49.3175 19.105V27.4029C49.3175 28.374 48.5279 29.1641 47.5573 29.1641H35.6163C34.9691 29.1641 34.4445 29.6889 34.4445 30.336C34.4445 30.9831 34.9691 31.5079 35.6163 31.5079H54.3843C56.9698 31.5079 59.0732 33.6137 59.0732 36.2023C59.0733 38.7889 56.9699 40.8933 54.3844 40.8933Z" fill="#F23849"/>
</svg>
