<svg width="26" height="31" viewBox="0 0 26 31" fill="none" xmlns="http://www.w3.org/2000/svg">
<path d="M3.79018 12.4914C2.82042 10.2951 3.92083 7.79403 6.24232 6.36369C6.65426 6.10977 7.14766 6.01843 7.62199 6.10826C8.09631 6.1981 8.51587 6.46236 8.79518 6.8472L10.1715 8.74321C10.393 9.0482 10.5158 9.41219 10.5242 9.78845C10.5325 10.1647 10.426 10.5361 10.2184 10.8549L8.3868 13.6593C8.29658 13.7977 8.24421 13.9564 8.2348 14.1197C8.22539 14.283 8.25927 14.4455 8.33312 14.5913L8.38085 14.68L8.50204 14.9014C9.11006 15.9717 9.86306 16.9553 10.7408 17.8256C11.6895 18.7462 12.7698 19.5265 13.9486 20.1427L14.0407 20.1883C14.189 20.2605 14.3542 20.2936 14.5204 20.2843C14.6865 20.275 14.8478 20.2237 14.9886 20.1354L17.8472 18.3405C18.1722 18.1369 18.5507 18.0325 18.9342 18.0407C19.3176 18.0489 19.6886 18.1694 19.9994 18.3866L21.9435 19.742C22.7534 20.3059 22.9659 21.397 22.4323 22.2292C20.973 24.5082 18.4138 25.5805 16.1773 24.6237C13.4339 23.4438 10.9409 21.7762 8.82284 19.7043C6.69346 17.6374 4.98539 15.1904 3.78832 12.4919L3.79018 12.4914ZM10.319 14.188L11.8352 11.8606C12.2509 11.2231 12.4643 10.4804 12.448 9.72773C12.4316 8.97511 12.1863 8.24695 11.7434 7.63672L10.3689 5.74022C9.80682 4.96587 8.9625 4.4342 8.00802 4.25355C7.05354 4.07289 6.06072 4.25685 5.23187 4.76793C2.3488 6.54594 0.569229 9.96897 2.02196 13.26C3.03678 15.5575 4.71244 18.3768 7.45972 21.0535C9.74443 23.2874 12.4334 25.0851 15.3921 26.357C18.7467 27.7913 22.2463 26.057 24.0621 23.2236C25.1402 21.5407 24.7066 19.3413 23.0737 18.2013L21.1291 16.8441C20.5072 16.4104 19.7652 16.1702 18.9985 16.1544C18.2317 16.1386 17.4751 16.3479 16.8257 16.7555L14.4521 18.2447C13.6037 17.7501 12.8183 17.1592 12.1119 16.484C11.4199 15.7954 10.8178 15.0249 10.3195 14.1899L10.319 14.188Z" fill="white"/>
</svg>
